<svg width="148" height="26" viewBox="0 0 148 26" fill="none" xmlns="http://www.w3.org/2000/svg">
<g clip-path="url(#clip0_451_2698)">
<path d="M44.9823 19.0397L40.77 6.96045H43.6871L46.3013 14.979H46.3514L48.7866 6.96045H51.1481L53.6334 14.979H53.6834L56.2977 6.96045H59.1647L54.9524 19.0397H52.3408L49.9555 11.4398H49.9292L47.544 19.0397H44.9823Z" fill="black"/>
<path d="M66.0153 19.2372C64.2724 19.2372 62.8402 18.667 61.7134 17.5292C60.5893 16.3914 60.0259 14.8965 60.0259 13.0499C60.0259 11.234 60.5919 9.73662 61.7266 8.55772C62.8587 7.37882 64.2803 6.78809 65.989 6.78809C67.6476 6.78809 68.9244 7.34029 69.8195 8.44728L69.8696 8.42159V6.96017H72.7103V19.0394H69.9959V17.4547L69.9459 17.429C69.035 18.6362 67.7239 19.2372 66.0153 19.2372ZM66.4734 16.7124C67.4527 16.7124 68.2873 16.3734 68.9718 15.6979C69.6563 15.0224 69.9986 14.1466 69.9986 13.073C69.9986 11.9994 69.6642 11.1004 68.9955 10.3736C68.3268 9.64672 67.487 9.28458 66.4707 9.28458C65.4545 9.28458 64.6094 9.63131 63.9328 10.3248C63.2562 11.0183 62.9192 11.9326 62.9192 13.073C62.9192 14.1466 63.2483 15.0198 63.9091 15.6979C64.5699 16.3734 65.4229 16.7124 66.4734 16.7124Z" fill="black"/>
<path d="M80.2735 19.237C79.1914 19.237 78.3437 18.9006 77.7355 18.2225C77.1274 17.547 76.822 16.5479 76.822 15.2278V9.31015H75.3003V6.96005H76.822V2.95077L79.6627 2.65283V6.96005H83.2905V9.31015H79.6653V14.9529C79.6653 15.5642 79.7575 15.9957 79.9444 16.2526C80.1313 16.5094 80.4341 16.6352 80.8579 16.6352C81.4161 16.6352 82.0242 16.4632 82.685 16.1164L83.4195 18.5179C82.5244 18.9982 81.474 19.237 80.2735 19.237Z" fill="black"/>
<path d="M91.0075 19.2372C89.2646 19.2372 87.8324 18.667 86.7056 17.5292C85.5815 16.3914 85.0181 14.8965 85.0181 13.0499C85.0181 11.234 85.5841 9.73662 86.7188 8.55772C87.8509 7.37882 89.2725 6.78809 90.9811 6.78809C92.6397 6.78809 93.9166 7.34029 94.8117 8.44728L94.8618 8.42159V6.96017H97.7024V19.0394H94.9881V17.4547L94.9381 17.429C94.0246 18.6362 92.7135 19.2372 91.0075 19.2372ZM91.4629 16.7124C92.4423 16.7124 93.2769 16.3734 93.9614 15.6979C94.6459 15.0224 94.9881 14.1466 94.9881 13.073C94.9881 11.9994 94.6538 11.1004 93.9851 10.3736C93.3164 9.64672 92.4765 9.28458 91.4603 9.28458C90.4441 9.28458 89.599 9.63131 88.9224 10.3248C88.2458 11.0183 87.9061 11.9326 87.9061 13.073C87.9061 14.1466 88.2352 15.0198 88.896 15.6979C89.5595 16.3734 90.4151 16.7124 91.4629 16.7124Z" fill="black"/>
<path d="M100.851 19.0395V1.11714L103.694 0.821777V19.0395H100.851Z" fill="black"/>
<path d="M112.727 19.2372C110.797 19.2372 109.233 18.6516 108.033 17.4804C106.832 16.3092 106.232 14.8221 106.232 13.0242C106.232 11.2263 106.832 9.73662 108.033 8.55772C109.233 7.37882 110.797 6.78809 112.727 6.78809C114.638 6.78809 116.199 7.36598 117.408 8.52176C118.616 9.67754 119.222 11.1775 119.222 13.0267C119.222 14.858 118.616 16.3528 117.408 17.5061C116.197 18.6593 114.638 19.2372 112.727 19.2372ZM112.727 16.7124C113.74 16.7124 114.596 16.3657 115.288 15.6722C115.981 14.9787 116.328 14.0978 116.328 13.0242C116.328 11.9198 115.986 11.0183 115.302 10.3274C114.617 9.63388 113.759 9.28715 112.727 9.28715C111.661 9.28715 110.794 9.64159 110.126 10.3505C109.457 11.0593 109.123 11.9506 109.123 13.0242C109.123 14.0644 109.46 14.9376 110.139 15.6491C110.815 16.358 111.676 16.7124 112.727 16.7124Z" fill="black"/>
<path d="M127.602 19.2372C125.672 19.2372 124.108 18.6516 122.908 17.4804C121.705 16.3092 121.104 14.8221 121.104 13.0242C121.104 11.2263 121.705 9.73662 122.905 8.55772C124.106 7.37882 125.672 6.78809 127.599 6.78809C129.511 6.78809 131.072 7.36598 132.28 8.52176C133.489 9.67754 134.094 11.1775 134.094 13.0267C134.094 14.858 133.489 16.3528 132.28 17.5061C131.072 18.6593 129.513 19.2372 127.602 19.2372ZM127.602 16.7124C128.616 16.7124 129.471 16.3657 130.164 15.6722C130.856 14.9787 131.204 14.0978 131.204 13.0242C131.204 11.9198 130.861 11.0183 130.177 10.3274C129.492 9.63388 128.634 9.28715 127.602 9.28715C126.536 9.28715 125.67 9.64159 125.001 10.3505C124.332 11.0593 123.998 11.9506 123.998 13.0242C123.998 14.0644 124.337 14.9376 125.014 15.6491C125.688 16.358 126.552 16.7124 127.602 16.7124Z" fill="black"/>
<path d="M136.634 19.0395V1.11714L139.475 0.821777V12.5286L139.525 12.5543L144.551 6.96028H147.926L143.458 11.812L148 19.0395H144.804L141.481 13.7178L139.475 15.847V19.0395H136.634Z" fill="black"/>
<path d="M29.6775 1.13188e-05C27.4661 0.00514814 25.6785 1.75937 25.6837 3.91683L25.7022 11.0699C25.7022 11.4782 25.1282 11.5887 24.9676 11.2137L20.9659 1.85697C20.4921 0.747418 19.3784 0.0256954 18.1463 0.0282638C16.464 0.0334006 15.1029 1.3664 15.1082 3.00762L15.1424 16.6921C15.1424 17.1416 14.479 17.2083 14.3868 16.7691L11.1407 1.4075C10.9959 0.714029 10.3693 0.218326 9.64532 0.220894L1.5208 0.238873C0.436125 0.241442 -0.301032 1.32017 0.117568 2.29874L9.21882 23.596C9.84277 25.0548 11.3039 26.0026 12.923 26C15.1345 25.9949 16.9221 24.2432 16.9168 22.0858L16.8879 10.3764C16.8852 9.97057 17.4618 9.85756 17.6224 10.2326L21.6241 19.5918C22.9062 22.5943 27.4924 21.6928 27.4819 18.4412L27.6003 7.24292C28.2111 7.60764 28.9272 7.81568 29.696 7.81568C31.9074 7.81054 33.6951 6.05632 33.6898 3.90142C33.6845 1.73882 31.889 -0.0051255 29.6775 1.13188e-05Z" fill="#EB4969"/>
</g>
<defs>
<clipPath id="clip0_451_2698">
<rect width="148" height="26" fill="white"/>
</clipPath>
</defs>
</svg>
