<?xml version="1.0" standalone="no"?>
<!DOCTYPE svg PUBLIC "-//W3C//DTD SVG 20010904//EN"
 "http://www.w3.org/TR/2001/REC-SVG-20010904/DTD/svg10.dtd">
<svg version="1.0" xmlns="http://www.w3.org/2000/svg"
 width="200.000000pt" height="200.000000pt" viewBox="0 0 200.000000 200.000000"
 preserveAspectRatio="xMidYMid meet">
<metadata>
Created by potrace 1.16, written by Peter Selinger 2001-2019
</metadata>
<g transform="translate(0.000000,200.000000) scale(0.100000,-0.100000)"
fill="#002451" stroke="none">
<path d="M1416 1688 l-33 -33 -6 -400 c-4 -220 -7 -492 -7 -604 l0 -203 57
-90 c31 -49 59 -91 63 -93 4 -3 35 40 69 94 l61 98 0 597 0 598 -34 34 c-30
30 -40 34 -86 34 -45 0 -56 -4 -84 -32z m139 -33 c16 -15 25 -36 25 -55 l0
-30 -80 0 -80 0 0 30 c0 41 39 80 80 80 19 0 40 -9 55 -25z m-85 -575 c0 -343
0 -350 20 -350 20 0 20 7 20 350 l0 350 35 0 35 0 0 -378 c0 -209 -3 -420 -6
-470 l-7 -92 -28 0 c-26 0 -29 3 -29 35 0 28 -4 35 -20 35 -16 0 -20 -7 -20
-35 0 -33 -2 -35 -32 -35 l-31 0 6 287 c4 157 7 369 7 470 l0 183 25 0 25 0 0
-350z"/>
<path d="M380 1000 l0 -690 485 0 485 0 0 690 0 690 -485 0 -485 0 0 -690z
m930 590 l0 -60 -445 0 -445 0 0 60 0 60 445 0 445 0 0 -60z m0 -670 l0 -570
-445 0 -445 0 0 570 0 570 445 0 445 0 0 -570z"/>
<path d="M620 1305 l0 -65 -60 0 c-53 0 -60 -2 -60 -20 0 -18 7 -20 60 -20
l60 0 0 -220 0 -220 75 0 c68 0 75 2 75 20 0 17 -7 20 -50 20 l-50 0 0 200 0
200 195 0 195 0 0 -200 0 -200 -50 0 c-43 0 -50 -3 -50 -20 0 -17 7 -20 50
-20 l50 0 0 -65 c0 -58 2 -65 20 -65 18 0 20 7 20 65 l0 65 65 0 c58 0 65 2
65 20 0 18 -7 20 -65 20 l-65 0 0 220 0 220 -215 0 -215 0 0 65 c0 63 -1 65
-25 65 -24 0 -25 -2 -25 -65z"/>
</g>
</svg>
