<?xml version="1.0" encoding="UTF-8"?>
<svg xmlns="http://www.w3.org/2000/svg" xmlns:xlink="http://www.w3.org/1999/xlink" width="700px" height="700px" viewBox="0 0 700 700" version="1.1">
<g id="surface1">
<path style=" stroke:none;fill-rule:nonzero;fill:rgb(0%,0%,0%);fill-opacity:1;" d="M 586.300781 57.898438 L 581.101562 63.601562 L 586.5 80.5 C 589.5 89.800781 591.800781 97.5 591.699219 97.699219 C 591.601562 97.800781 583.898438 95.398438 574.601562 92.300781 L 557.699219 86.800781 L 545.898438 98.601562 L 571.199219 106 L 596.5 113.300781 L 607.300781 123.898438 L 618 134.5 L 623.199219 129.199219 L 628.5 124 L 608 103.5 L 600.5 78 C 596.398438 64 593 52.398438 593 52.300781 C 593 51.199219 590.699219 53 586.300781 57.898438 Z M 586.300781 57.898438 "/>
<path style=" stroke:none;fill-rule:nonzero;fill:rgb(0%,0%,0%);fill-opacity:1;" d="M 536.5 108 L 531.601562 113 L 542.300781 123.800781 L 553 134.5 L 530 157.5 L 519.199219 146.699219 L 508.398438 136 L 503.199219 141.300781 L 498 146.5 L 552 200.5 L 557.199219 195.199219 L 562.5 190 L 539.5 167 L 550.5 156 C 556.5 150 561.898438 145 562.5 145 C 563.101562 145 568.5 149.898438 574.5 156 L 585.5 167 L 596 156.5 L 569.300781 129.800781 C 554.601562 115 542.300781 103 542 103 C 541.699219 103 539.199219 105.300781 536.5 108 Z M 536.5 108 "/>
<path style=" stroke:none;fill-rule:nonzero;fill:rgb(0%,0%,0%);fill-opacity:1;" d="M 489.5 161.699219 C 482.101562 163.300781 480 164.800781 466.300781 178.300781 C 458.398438 186.101562 452 192.898438 452 193.5 C 452 194 463.898438 206.398438 478.5 221 L 505 247.5 L 510.199219 242.199219 L 515.5 237 L 506.199219 227.699219 C 501.199219 222.601562 497 218 497 217.5 C 497 216.898438 500.398438 213.101562 504.601562 209 C 519.398438 194.5 520.898438 182.699219 509.800781 170.398438 C 504 164.199219 495.398438 160.5 489.5 161.699219 Z M 498.601562 180.398438 C 505.398438 187.101562 504.898438 189.300781 494.800781 199.601562 L 486.601562 208.101562 L 471 192.5 L 478.300781 185.199219 C 489 174.300781 491.898438 173.601562 498.601562 180.398438 Z M 498.601562 180.398438 "/>
<path style=" stroke:none;fill-rule:nonzero;fill:rgb(0%,0%,0%);fill-opacity:1;" d="M 434.5 212.398438 C 431 214.101562 425.101562 219.199219 414.800781 229.699219 L 400 244.5 L 454 298.5 L 459.199219 293.199219 L 464.5 288 L 443.5 267 L 451 259.398438 C 458.699219 251.5 463.601562 248.5 466.699219 249.699219 C 467.699219 250 471.699219 253.300781 475.5 257 C 485.898438 266.898438 485.699219 266.898438 492 260.5 L 497.199219 255.199219 L 494.898438 253.898438 C 493.601562 253.300781 489.300781 249.601562 485.5 245.898438 C 478.101562 238.800781 473.199219 236 467.898438 236 C 464.898438 236 464.800781 235.800781 465.398438 232.898438 C 466.300781 228.199219 464.300781 222.398438 460.199219 217.800781 C 453.101562 209.898438 443.800781 208 434.5 212.398438 Z M 449.199219 227.699219 C 452.699219 231.398438 453.5 235.101562 451.699219 238.601562 C 450.800781 240.199219 446.5 245.101562 442.101562 249.5 L 434 257.5 L 427 250.398438 L 419.898438 243.398438 L 429.300781 234.199219 C 438 225.699219 439 225 442.699219 225 C 445.699219 225 447.199219 225.699219 449.199219 227.699219 Z M 449.199219 227.699219 "/>
<path style=" stroke:none;fill-rule:nonzero;fill:rgb(0%,0%,0%);fill-opacity:1;" d="M 386.199219 258.300781 L 381 263.5 L 399.101562 281.5 C 409 291.398438 417.800781 300.699219 418.601562 302.199219 C 420.398438 305.699219 420.398438 311.300781 418.5 315 C 416.699219 318.5 411.5 322.601562 407.800781 323.5 C 401.898438 325 398.300781 322.5 378.699219 303.101562 L 360 284.601562 L 354.699219 289.800781 L 349.5 295.101562 L 368.601562 314 C 384 329.300781 388.800781 333.5 393.398438 335.601562 C 405.199219 341 417.101562 338.199219 426.601562 327.699219 C 432.800781 320.800781 435 315.898438 435 308.5 C 435 297.699219 431.800781 292.699219 410.898438 271.5 C 400.898438 261.300781 392.398438 253 392.101562 253 C 391.699219 253 389.101562 255.398438 386.199219 258.300781 Z M 386.199219 258.300781 "/>
<path style=" stroke:none;fill-rule:nonzero;fill:rgb(0%,0%,0%);fill-opacity:1;" d="M 333.601562 310.898438 L 325.699219 318.800781 L 339.898438 344.101562 C 347.699219 357.898438 353.898438 369.398438 353.800781 369.601562 C 353.601562 369.699219 342.5 363.601562 329 355.898438 C 315.5 348.300781 304 342 303.5 342 C 302.898438 342 299.101562 345.398438 295 349.5 L 287.5 357 L 341.5 411 L 346.199219 406.300781 C 348.898438 403.699219 351 401.101562 351 400.5 C 351 400 342.800781 391.300781 332.800781 381.199219 C 322.699219 371.101562 315.601562 363.300781 317 364 C 318.398438 364.699219 329 370.601562 340.601562 377.101562 C 352.101562 383.699219 362 389 362.601562 389 C 363.101562 389 365.898438 386.601562 368.800781 383.699219 L 374 378.5 L 360.5 354.601562 C 353.101562 341.398438 347 330.398438 347 330.101562 C 347 329.800781 355.5 338.101562 366 348.5 L 385 367.5 L 390.199219 362.199219 L 395.5 357 L 341.5 303 Z M 333.601562 310.898438 "/>
<path style=" stroke:none;fill-rule:nonzero;fill:rgb(0%,0%,0%);fill-opacity:1;" d="M 256.199219 388.300781 L 251 393.5 L 269.5 412 C 279.699219 422.199219 287.699219 430.601562 287.300781 430.699219 C 286.800781 430.898438 273.601562 427.5 257.800781 423.199219 L 229.101562 415.300781 L 222.800781 421.699219 L 216.5 428 L 270.5 482 L 275.199219 477.300781 C 277.898438 474.699219 280 472.101562 280 471.5 C 280 471 271.898438 462.398438 262 452.5 C 252.199219 442.699219 244.199219 434.398438 244.398438 434.199219 C 244.601562 434 257.398438 437.300781 272.699219 441.398438 C 288.101562 445.601562 301.300781 449 302.101562 449 C 302.898438 449 306.199219 446.300781 309.5 443 L 315.5 437 L 261.5 383 Z M 256.199219 388.300781 "/>
<path style=" stroke:none;fill-rule:nonzero;fill:rgb(0%,0%,0%);fill-opacity:1;" d="M 317.199219 413.300781 L 312 418.601562 L 323 429.398438 L 334 418.601562 L 328.800781 413.300781 C 325.898438 410.398438 323.300781 408 323 408 C 322.699219 408 320.101562 410.398438 317.199219 413.300781 Z M 317.199219 413.300781 "/>
<path style=" stroke:none;fill-rule:nonzero;fill:rgb(0%,0%,0%);fill-opacity:1;" d="M 203.199219 441.300781 L 198 446.5 L 252 500.5 L 257.199219 495.199219 L 262.5 490 L 208.5 436 Z M 203.199219 441.300781 "/>
<path style=" stroke:none;fill-rule:nonzero;fill:rgb(0%,0%,0%);fill-opacity:1;" d="M 187.199219 457.300781 L 182 462.601562 L 196 488.398438 C 203.800781 502.601562 209.898438 514.5 209.601562 514.699219 C 209.300781 515 197.5 508.898438 183.300781 501.199219 L 157.5 487.199219 L 152.300781 492.300781 C 149.398438 495.101562 147 497.699219 147 498 C 147 498.300781 163 506.601562 182.5 516.5 L 217.898438 534.5 L 223.5 528.898438 L 229.199219 523.300781 L 211.300781 487.699219 C 201.5 468 193.300781 452 193 452 C 192.699219 452 190.101562 454.398438 187.199219 457.300781 Z M 187.199219 457.300781 "/>
<path style=" stroke:none;fill-rule:nonzero;fill:rgb(0%,0%,0%);fill-opacity:1;" d="M 121 523.5 L 101.5 543 L 155.5 597 L 195.5 557 L 190.699219 552.300781 L 186 547.5 L 156 577.5 L 149.5 571 C 145.898438 567.5 143 564.101562 143 563.5 C 143 563 148.5 557 155.199219 550.300781 L 167.5 538 L 162.699219 533.300781 L 158 528.5 L 145.699219 540.800781 C 139 547.5 133 553 132.398438 553 C 131.199219 553 122 543.800781 122 542.5 C 122 542 128.398438 535.101562 136.199219 527.300781 L 150.398438 513 L 146 508.5 C 143.601562 506 141.300781 504 141 504 C 140.699219 504 131.699219 512.800781 121 523.5 Z M 121 523.5 "/>
<path style=" stroke:none;fill-rule:nonzero;fill:rgb(0%,0%,0%);fill-opacity:1;" d="M 87.601562 556.898438 L 80.800781 563.699219 L 81.5 584.101562 L 82.199219 604.5 L 71.601562 594 L 61 583.5 L 55.800781 588.800781 L 50.5 594 L 104.5 648 L 109.199219 643.300781 C 111.898438 640.699219 114 638.101562 114 637.5 C 114 636.898438 110 632.398438 105 627.5 C 96.199219 618.699219 96 618.398438 96 613.800781 C 96 610.601562 96.398438 609 97.300781 609 C 97.898438 609 107.199219 610.398438 117.699219 612.199219 L 137 615.5 L 143.5 609 C 147 605.5 149.800781 602.398438 149.5 602.199219 C 149.300781 602 137.300781 599.898438 122.800781 597.699219 L 96.5 593.5 L 95.898438 572.199219 C 95.601562 560.5 95.101562 550.800781 94.800781 550.5 C 94.601562 550.300781 91.300781 553.101562 87.601562 556.898438 Z M 87.601562 556.898438 "/>
</g>
</svg>
