<?xml version="1.0" encoding="UTF-8"?>
<svg xmlns="http://www.w3.org/2000/svg" xmlns:xlink="http://www.w3.org/1999/xlink" width="700px" height="700px" viewBox="0 0 700 699" version="1.1">
<g id="surface1">
<path style=" stroke:none;fill-rule:nonzero;fill:rgb(0%,0%,0%);fill-opacity:1;" d="M 572.8125 34.359375 C 568.722656 38.445312 567.582031 39.6875 567.667969 39.925781 C 567.734375 40.078125 567.820312 40.488281 567.871094 40.828125 C 567.921875 41.167969 568.007812 41.507812 568.058594 41.578125 C 568.144531 41.730469 569.066406 45.421875 569.234375 46.375 C 569.285156 46.648438 569.40625 47.007812 569.492188 47.160156 C 569.558594 47.3125 569.59375 47.484375 569.542969 47.535156 C 569.492188 47.585938 569.523438 47.773438 569.609375 47.941406 C 569.710938 48.113281 569.816406 48.46875 569.867188 48.757812 C 569.917969 49.03125 570.121094 49.882812 570.328125 50.632812 C 570.511719 51.378906 570.71875 52.179688 570.753906 52.417969 C 570.785156 52.65625 570.886719 53.046875 570.992188 53.304688 C 571.09375 53.574219 571.144531 53.78125 571.09375 53.78125 C 571.058594 53.78125 571.109375 54.035156 571.195312 54.324219 C 571.417969 55.054688 572.371094 58.851562 572.472656 59.394531 C 572.523438 59.632812 572.59375 59.941406 572.644531 60.078125 C 572.746094 60.332031 573.835938 64.707031 574.007812 65.523438 C 574.039062 65.761719 574.125 66.085938 574.175781 66.238281 C 574.226562 66.390625 574.296875 66.664062 574.332031 66.832031 C 574.382812 67.003906 574.601562 67.90625 574.839844 68.839844 C 575.082031 69.777344 575.320312 70.730469 575.371094 70.96875 C 575.402344 71.207031 575.488281 71.53125 575.539062 71.683594 C 575.589844 71.835938 575.660156 72.109375 575.695312 72.277344 C 575.847656 72.875 576.988281 77.519531 577.058594 77.808594 C 577.109375 77.980469 577.175781 78.253906 577.210938 78.40625 C 577.824219 80.925781 578.335938 82.917969 578.386719 83.019531 C 578.4375 83.085938 578.523438 83.445312 578.574219 83.816406 C 578.640625 84.191406 578.726562 84.636719 578.777344 84.789062 C 578.828125 84.941406 578.898438 85.214844 578.929688 85.382812 C 578.964844 85.554688 579.289062 86.796875 579.613281 88.15625 C 579.953125 89.519531 580.261719 90.761719 580.3125 90.914062 C 580.34375 91.085938 580.414062 91.355469 580.464844 91.511719 C 580.890625 93.144531 581.417969 95.289062 581.46875 95.5625 C 581.503906 95.75 581.589844 96.039062 581.65625 96.207031 C 581.761719 96.464844 581.707031 96.496094 581.214844 96.410156 C 580.890625 96.359375 580.449219 96.257812 580.210938 96.171875 C 579.972656 96.089844 579.050781 95.851562 578.164062 95.644531 C 577.277344 95.441406 576.359375 95.203125 576.121094 95.117188 C 575.882812 95.050781 575.507812 94.929688 575.269531 94.878906 C 574.875 94.8125 572.558594 94.234375 571.824219 94.03125 C 571.65625 93.976562 571.367188 93.910156 571.160156 93.859375 C 570.972656 93.824219 570.683594 93.757812 570.53125 93.707031 C 570.378906 93.65625 570.054688 93.585938 569.816406 93.535156 C 569.578125 93.484375 568.777344 93.28125 568.027344 93.09375 C 567.277344 92.890625 566.441406 92.683594 566.152344 92.632812 C 565.878906 92.582031 565.519531 92.480469 565.382812 92.414062 C 565.25 92.34375 564.789062 92.226562 564.363281 92.140625 C 563.9375 92.070312 563.5625 92.003906 563.511719 91.988281 C 562.554688 91.75 561.789062 91.527344 561.378906 91.390625 C 561.109375 91.304688 560.679688 91.203125 560.441406 91.152344 C 560.203125 91.121094 558.925781 90.796875 557.597656 90.457031 C 556.25 90.113281 555.007812 89.808594 554.820312 89.757812 C 554.324219 89.65625 554.019531 89.570312 552.859375 89.265625 C 552.296875 89.109375 551.652344 88.941406 551.410156 88.90625 C 551.171875 88.855469 550.832031 88.769531 550.644531 88.71875 C 550.457031 88.652344 550.269531 88.601562 550.21875 88.582031 C 550.167969 88.566406 549.914062 88.515625 549.621094 88.445312 C 549.351562 88.378906 548.957031 88.292969 548.769531 88.242188 C 548.582031 88.207031 547.816406 88.003906 547.066406 87.816406 C 546.316406 87.613281 545.515625 87.425781 545.277344 87.375 C 545.039062 87.324219 544.730469 87.257812 544.597656 87.203125 C 544.460938 87.136719 544.1875 87.070312 544 87.035156 C 543.8125 87 542.890625 86.78125 541.953125 86.542969 C 541.015625 86.304688 540.113281 86.066406 539.960938 86.011719 C 539.789062 85.980469 539.519531 85.910156 539.363281 85.859375 C 539.039062 85.773438 535.871094 84.976562 535.34375 84.839844 C 535.171875 84.804688 534.898438 84.738281 534.746094 84.6875 C 534.59375 84.636719 534.269531 84.566406 534.03125 84.515625 C 533.792969 84.464844 532.992188 84.261719 532.242188 84.074219 C 531.492188 83.867188 530.691406 83.683594 530.453125 83.628906 C 530.214844 83.597656 529.839844 83.476562 529.601562 83.410156 C 529.363281 83.324219 528.441406 83.085938 527.554688 82.882812 C 526.667969 82.695312 525.714844 82.441406 525.460938 82.335938 C 524.984375 82.148438 524.898438 82.21875 519.53125 87.578125 C 513.941406 93.160156 513.90625 93.195312 514.996094 93.332031 C 515.203125 93.367188 515.714844 93.484375 516.140625 93.605469 C 516.566406 93.738281 516.941406 93.84375 516.992188 93.859375 C 517.28125 93.925781 518.148438 94.132812 518.492188 94.199219 C 518.695312 94.25 519 94.320312 519.171875 94.371094 C 519.835938 94.558594 522.222656 95.152344 522.613281 95.238281 C 522.851562 95.289062 523.277344 95.390625 523.550781 95.492188 C 523.960938 95.613281 526.003906 96.121094 528.628906 96.753906 C 528.800781 96.785156 529.074219 96.855469 529.226562 96.90625 C 529.378906 96.957031 529.703125 97.023438 529.941406 97.074219 C 530.179688 97.125 530.980469 97.332031 531.730469 97.519531 C 532.480469 97.722656 533.230469 97.910156 533.402344 97.960938 C 533.554688 97.996094 533.828125 98.0625 533.996094 98.097656 C 534.679688 98.285156 538.5625 99.253906 538.851562 99.320312 C 539.007812 99.355469 539.28125 99.425781 539.449219 99.476562 C 540.335938 99.714844 541.308594 99.953125 541.527344 99.984375 C 541.664062 100.003906 542.125 100.121094 542.550781 100.242188 C 542.976562 100.378906 543.386719 100.460938 543.453125 100.445312 C 543.523438 100.429688 543.726562 100.480469 543.878906 100.566406 C 544.050781 100.648438 544.527344 100.769531 544.9375 100.835938 C 545.363281 100.90625 545.753906 100.988281 545.824219 101.023438 C 545.925781 101.09375 547.882812 101.601562 550.441406 102.214844 C 550.59375 102.25 550.867188 102.316406 551.035156 102.367188 C 551.71875 102.539062 554.769531 103.320312 555.042969 103.390625 C 555.210938 103.421875 555.484375 103.492188 555.636719 103.542969 C 555.792969 103.59375 556.113281 103.660156 556.351562 103.714844 C 556.59375 103.765625 557.394531 103.96875 558.144531 104.15625 C 558.890625 104.359375 559.691406 104.546875 559.933594 104.597656 C 560.171875 104.648438 560.476562 104.71875 560.613281 104.769531 C 560.75 104.835938 561.023438 104.90625 561.210938 104.9375 C 561.398438 104.972656 562.316406 105.195312 563.253906 105.433594 C 564.191406 105.671875 565.09375 105.910156 565.265625 105.960938 C 565.417969 105.992188 565.691406 106.0625 565.863281 106.113281 C 566.339844 106.230469 567.480469 106.503906 567.941406 106.605469 C 568.179688 106.65625 568.980469 106.863281 569.730469 107.050781 C 570.480469 107.253906 571.230469 107.441406 571.398438 107.472656 C 571.570312 107.507812 571.875 107.59375 572.082031 107.660156 C 572.285156 107.730469 572.609375 107.796875 572.796875 107.832031 C 572.984375 107.867188 573.75 108.054688 574.5 108.238281 C 575.25 108.445312 576 108.632812 576.171875 108.683594 C 576.324219 108.714844 576.613281 108.785156 576.800781 108.835938 C 576.988281 108.886719 577.277344 108.953125 577.449219 108.988281 C 577.601562 109.023438 578.8125 109.328125 580.125 109.667969 C 581.453125 110.011719 582.679688 110.316406 582.851562 110.367188 C 584.570312 110.777344 584.964844 110.894531 585.066406 110.996094 C 585.183594 111.097656 585.882812 113.769531 586.105469 114.878906 C 586.15625 115.117188 586.242188 115.457031 586.292969 115.644531 C 586.359375 115.832031 586.410156 116.019531 586.429688 116.070312 C 586.445312 116.121094 586.496094 116.375 586.566406 116.664062 C 586.632812 116.9375 586.71875 117.328125 586.753906 117.515625 C 586.804688 117.703125 586.992188 118.46875 587.195312 119.21875 C 587.382812 119.964844 587.585938 120.765625 587.640625 121.003906 C 587.691406 121.242188 587.757812 121.566406 587.808594 121.71875 C 587.859375 121.871094 587.929688 122.160156 587.960938 122.347656 C 588.011719 122.554688 588.082031 122.84375 588.132812 122.996094 C 588.628906 124.953125 588.917969 126.09375 589 126.449219 C 589.035156 126.6875 589.121094 127.011719 589.171875 127.164062 C 589.222656 127.335938 589.292969 127.675781 589.34375 127.929688 C 589.394531 128.203125 589.480469 128.5625 589.53125 128.746094 C 589.597656 128.933594 589.648438 129.121094 589.667969 129.171875 C 589.683594 129.222656 589.734375 129.480469 589.804688 129.769531 C 589.871094 130.042969 589.957031 130.433594 589.992188 130.621094 C 590.042969 130.808594 590.230469 131.574219 590.433594 132.320312 C 590.621094 133.070312 590.824219 133.871094 590.875 134.109375 C 590.925781 134.347656 590.996094 134.671875 591.046875 134.824219 C 591.097656 134.976562 591.167969 135.265625 591.199219 135.453125 C 591.25 135.65625 591.320312 135.945312 591.371094 136.101562 C 591.558594 136.816406 592.15625 139.164062 592.238281 139.554688 C 592.273438 139.792969 592.359375 140.117188 592.410156 140.269531 C 592.460938 140.441406 592.527344 140.78125 592.582031 141.035156 C 592.632812 141.308594 592.714844 141.664062 592.769531 141.851562 C 592.835938 142.039062 592.886719 142.226562 592.902344 142.277344 C 592.921875 142.328125 592.972656 142.585938 593.039062 142.875 C 593.109375 143.144531 593.195312 143.539062 593.246094 143.722656 C 593.347656 144.132812 593.976562 146.667969 594.097656 147.078125 C 594.148438 147.246094 594.214844 147.535156 594.265625 147.742188 C 594.300781 147.929688 594.371094 148.21875 594.421875 148.371094 C 594.472656 148.523438 594.558594 148.847656 594.589844 149.085938 C 594.640625 149.324219 594.847656 150.125 595.035156 150.871094 C 595.222656 151.621094 595.425781 152.421875 595.476562 152.660156 C 595.511719 152.898438 595.597656 153.222656 595.648438 153.375 C 595.699219 153.527344 595.765625 153.816406 595.800781 154.003906 C 595.851562 154.207031 595.921875 154.496094 595.953125 154.652344 C 596.140625 155.347656 597.113281 159.230469 597.179688 159.5 C 597.214844 159.671875 597.285156 159.960938 597.335938 160.148438 C 597.386719 160.335938 597.453125 160.640625 597.503906 160.84375 C 597.539062 161.03125 597.605469 161.320312 597.660156 161.476562 C 597.710938 161.628906 597.792969 161.953125 597.828125 162.191406 C 597.878906 162.429688 598.085938 163.226562 598.273438 163.976562 C 598.460938 164.726562 598.664062 165.527344 598.714844 165.765625 C 598.75 166.003906 598.832031 166.324219 598.886719 166.480469 C 598.9375 166.632812 599.003906 166.921875 599.039062 167.109375 C 599.089844 167.3125 599.15625 167.601562 599.207031 167.753906 C 599.550781 169.082031 599.992188 170.851562 600.0625 171.125 C 600.113281 171.3125 600.195312 171.6875 600.265625 171.976562 C 600.332031 172.25 600.382812 172.519531 600.402344 172.570312 C 600.417969 172.621094 600.46875 172.808594 600.539062 172.996094 C 600.589844 173.183594 600.675781 173.542969 600.726562 173.8125 C 600.777344 174.070312 600.84375 174.410156 600.894531 174.578125 C 600.945312 174.734375 601.03125 175.054688 601.066406 175.292969 C 601.117188 175.53125 601.320312 176.332031 601.507812 177.082031 C 601.695312 177.832031 601.902344 178.628906 601.953125 178.867188 C 601.988281 179.105469 602.105469 179.515625 602.191406 179.804688 C 602.277344 180.078125 602.394531 180.503906 602.429688 180.742188 C 602.480469 180.980469 602.683594 181.777344 602.871094 182.527344 C 603.078125 183.277344 603.265625 184.042969 603.316406 184.230469 C 603.367188 184.554688 603.589844 185.488281 603.640625 185.675781 C 603.859375 186.492188 603.945312 186.695312 604.046875 186.695312 C 604.097656 186.695312 606.535156 184.316406 609.449219 181.40625 L 614.765625 176.113281 L 614.511719 175.226562 C 614.375 174.75 614.253906 174.207031 614.222656 174 C 614.1875 173.8125 614.136719 173.574219 614.085938 173.492188 C 614.015625 173.40625 613.929688 173.03125 613.878906 172.65625 C 613.8125 172.28125 613.726562 171.839844 613.675781 171.6875 C 613.625 171.535156 613.554688 171.261719 613.523438 171.089844 C 613.488281 170.921875 613.367188 170.476562 613.265625 170.105469 C 612.996094 169.015625 612.226562 165.882812 612.160156 165.507812 C 612.109375 165.320312 612.023438 164.929688 611.953125 164.65625 C 611.886719 164.367188 611.835938 164.113281 611.820312 164.0625 C 611.800781 164.011719 611.75 163.824219 611.683594 163.636719 C 611.632812 163.449219 611.546875 163.109375 611.496094 162.871094 C 611.460938 162.632812 611.136719 161.339844 610.796875 159.976562 C 610.472656 158.617188 610.164062 157.355469 610.132812 157.167969 C 610.082031 156.980469 609.976562 156.574219 609.894531 156.265625 C 609.789062 155.960938 609.707031 155.671875 609.707031 155.636719 C 609.722656 155.417969 609.144531 153.050781 608.5625 150.871094 C 608.511719 150.683594 608.445312 150.34375 608.410156 150.105469 C 608.375 149.867188 608.273438 149.476562 608.171875 149.203125 C 608.070312 148.949219 608.019531 148.746094 608.070312 148.746094 C 608.105469 148.746094 608.050781 148.488281 607.949219 148.183594 C 607.863281 147.894531 607.761719 147.484375 607.730469 147.296875 C 607.695312 147.109375 607.386719 145.851562 607.046875 144.492188 C 606.707031 143.128906 606.382812 141.785156 606.332031 141.511719 C 606.28125 141.222656 606.179688 140.882812 606.09375 140.730469 C 606.023438 140.574219 605.992188 140.40625 606.042969 140.355469 C 606.09375 140.304688 606.058594 140.117188 605.972656 139.945312 C 605.871094 139.777344 605.753906 139.367188 605.699219 139.027344 C 605.648438 138.6875 605.566406 138.296875 605.496094 138.140625 C 605.445312 137.988281 605.207031 137.085938 604.984375 136.117188 C 604.765625 135.148438 604.542969 134.226562 604.492188 134.058594 C 604.441406 133.90625 604.371094 133.617188 604.320312 133.410156 C 604.285156 133.222656 604.21875 132.933594 604.167969 132.78125 C 604.117188 132.628906 604.046875 132.304688 603.996094 132.066406 C 603.964844 131.828125 603.84375 131.335938 603.742188 130.960938 C 603.640625 130.585938 603.28125 129.121094 602.941406 127.726562 C 602.277344 124.882812 602.226562 124.699219 602.105469 124.273438 C 601.96875 123.746094 601.695312 122.621094 601.613281 122.195312 C 601.507812 121.667969 600.570312 117.820312 600.382812 117.175781 C 600.351562 117.074219 600.300781 116.835938 600.25 116.613281 C 600.195312 116.390625 600.128906 116.085938 600.078125 115.933594 C 600.027344 115.78125 599.941406 115.386719 599.890625 115.082031 C 599.804688 114.570312 599.839844 114.519531 600.128906 114.621094 C 600.316406 114.671875 600.605469 114.757812 600.777344 114.792969 C 600.945312 114.828125 602.191406 115.148438 603.554688 115.472656 C 604.917969 115.8125 606.160156 116.121094 606.332031 116.171875 C 606.484375 116.203125 606.757812 116.273438 606.929688 116.324219 C 607.355469 116.441406 608.511719 116.714844 609.007812 116.816406 C 609.246094 116.867188 610.046875 117.074219 610.796875 117.261719 C 611.546875 117.449219 612.347656 117.652344 612.585938 117.703125 C 612.824219 117.738281 613.148438 117.820312 613.300781 117.871094 C 613.453125 117.925781 613.742188 117.992188 613.929688 118.027344 C 614.136719 118.078125 614.425781 118.144531 614.597656 118.195312 C 615.292969 118.382812 617.644531 118.980469 618.039062 119.0625 C 618.277344 119.097656 618.601562 119.183594 618.753906 119.234375 C 618.90625 119.285156 619.179688 119.351562 619.351562 119.386719 C 619.519531 119.4375 620.117188 119.574219 620.679688 119.710938 C 621.242188 119.847656 621.890625 120 622.128906 120.050781 C 622.554688 120.152344 624.207031 120.5625 625.5 120.917969 C 625.980469 121.039062 627.121094 121.3125 627.582031 121.414062 C 627.820312 121.464844 628.621094 121.667969 629.371094 121.855469 C 630.121094 122.058594 630.921875 122.265625 631.160156 122.296875 C 631.398438 122.347656 631.722656 122.417969 631.875 122.46875 C 632.027344 122.519531 632.300781 122.585938 632.472656 122.621094 C 632.640625 122.671875 633.238281 122.808594 633.800781 122.945312 C 634.363281 123.082031 635.007812 123.234375 635.25 123.285156 C 635.488281 123.335938 636.132812 123.507812 636.695312 123.660156 C 637.257812 123.8125 637.855469 123.964844 638.027344 124 C 638.179688 124.035156 638.453125 124.101562 638.621094 124.152344 C 639.097656 124.273438 640.242188 124.542969 640.699219 124.644531 C 640.941406 124.699219 641.742188 124.902344 642.492188 125.089844 C 643.238281 125.292969 644.039062 125.496094 644.28125 125.53125 C 644.519531 125.582031 644.839844 125.652344 644.996094 125.703125 C 645.148438 125.753906 645.4375 125.820312 645.625 125.855469 C 645.832031 125.90625 646.121094 125.972656 646.289062 126.023438 C 646.988281 126.210938 649.339844 126.808594 649.730469 126.894531 C 649.972656 126.925781 650.292969 127.011719 650.449219 127.0625 C 650.601562 127.113281 650.875 127.183594 651.042969 127.214844 C 651.214844 127.265625 651.8125 127.421875 652.375 127.554688 C 652.9375 127.710938 653.582031 127.863281 653.820312 127.898438 C 654.539062 128.03125 656.171875 128.457031 656.328125 128.542969 C 656.394531 128.59375 656.769531 128.679688 657.144531 128.730469 C 657.519531 128.800781 658.066406 128.917969 658.335938 129.003906 C 658.628906 129.089844 659.035156 129.207031 659.273438 129.242188 C 659.511719 129.292969 660.042969 129.429688 660.449219 129.53125 L 661.183594 129.734375 L 666.484375 124.441406 C 670.179688 120.75 671.730469 119.082031 671.613281 118.960938 C 671.507812 118.859375 671.269531 118.742188 671.066406 118.707031 C 670.863281 118.65625 670.539062 118.585938 670.332031 118.535156 C 670.144531 118.503906 669.824219 118.417969 669.617188 118.347656 C 669.414062 118.28125 669.089844 118.214844 668.902344 118.179688 C 668.714844 118.144531 667.949219 117.957031 667.199219 117.769531 C 666.449219 117.566406 665.613281 117.363281 665.324219 117.3125 C 665.050781 117.261719 664.675781 117.15625 664.503906 117.054688 C 664.335938 116.972656 664.148438 116.9375 664.097656 116.988281 C 664.046875 117.039062 663.875 117.003906 663.722656 116.9375 C 663.570312 116.851562 663.226562 116.734375 662.9375 116.679688 C 662.460938 116.597656 661.132812 116.257812 659.496094 115.8125 C 659 115.695312 657.859375 115.421875 657.398438 115.320312 C 657.160156 115.269531 656.359375 115.066406 655.609375 114.878906 C 654.859375 114.671875 654.058594 114.46875 653.820312 114.433594 C 653.582031 114.382812 653.257812 114.316406 653.105469 114.265625 C 652.953125 114.214844 652.679688 114.144531 652.507812 114.113281 C 652.339844 114.0625 651.742188 113.90625 651.179688 113.769531 C 650.617188 113.617188 649.972656 113.480469 649.730469 113.429688 C 649.492188 113.398438 648.761719 113.210938 648.113281 113.023438 C 647.449219 112.835938 646.734375 112.648438 646.496094 112.597656 C 646.257812 112.546875 645.300781 112.308594 644.363281 112.070312 C 643.425781 111.832031 642.523438 111.609375 642.355469 111.558594 C 642.183594 111.523438 641.910156 111.457031 641.757812 111.40625 C 641.605469 111.355469 641.160156 111.269531 640.785156 111.203125 C 640.410156 111.152344 640.035156 111.066406 639.96875 111.015625 C 639.882812 110.964844 638.894531 110.707031 637.753906 110.4375 C 636.613281 110.144531 635.539062 109.890625 635.382812 109.855469 C 635.214844 109.804688 634.941406 109.738281 634.789062 109.6875 C 634.617188 109.652344 633.5625 109.378906 632.4375 109.109375 C 631.3125 108.835938 630.136719 108.53125 629.847656 108.425781 C 629.539062 108.34375 629.285156 108.292969 629.285156 108.324219 C 629.285156 108.375 629.078125 108.324219 628.824219 108.222656 C 628.550781 108.121094 628.160156 108.019531 627.921875 107.984375 C 627.683594 107.949219 626.882812 107.746094 626.132812 107.558594 C 625.382812 107.355469 624.632812 107.167969 624.480469 107.117188 C 624.308594 107.082031 624.035156 107.015625 623.882812 106.980469 C 621.328125 106.335938 619.230469 105.804688 618.890625 105.753906 C 618.652344 105.703125 618.3125 105.621094 618.125 105.566406 C 617.9375 105.5 617.75 105.449219 617.695312 105.433594 C 617.644531 105.414062 617.390625 105.363281 617.101562 105.296875 C 616.828125 105.226562 616.4375 105.144531 616.25 105.089844 C 616.0625 105.039062 615.292969 104.851562 614.542969 104.667969 C 613.796875 104.480469 612.996094 104.273438 612.753906 104.222656 C 612.515625 104.191406 612.191406 104.105469 612.039062 104.054688 C 611.886719 104.003906 611.597656 103.933594 611.410156 103.898438 C 611.203125 103.847656 610.914062 103.78125 610.761719 103.730469 C 610.011719 103.527344 607.695312 102.949219 607.304688 102.863281 C 607.0625 102.828125 606.757812 102.742188 606.621094 102.691406 C 606.484375 102.625 606.210938 102.554688 606.023438 102.523438 C 605.835938 102.488281 605.222656 102.335938 604.660156 102.199219 C 604.097656 102.046875 603.484375 101.910156 603.296875 101.875 C 603.109375 101.839844 602.617188 101.722656 602.191406 101.601562 C 601.765625 101.464844 601.355469 101.382812 601.289062 101.398438 C 601.21875 101.414062 601.015625 101.363281 600.863281 101.28125 C 600.707031 101.195312 600.351562 101.09375 600.0625 101.042969 C 599.789062 100.988281 599.394531 100.90625 599.207031 100.855469 C 599.019531 100.804688 598.527344 100.683594 598.101562 100.582031 C 596.039062 100.089844 596.074219 100.105469 595.867188 99.339844 C 595.75 98.949219 595.628906 98.503906 595.597656 98.371094 C 595.578125 98.234375 595.238281 96.886719 594.863281 95.390625 C 594.472656 93.894531 594.132812 92.53125 594.097656 92.363281 C 594.0625 92.191406 593.996094 91.917969 593.945312 91.765625 C 593.890625 91.613281 593.808594 91.289062 593.773438 91.050781 C 593.722656 90.8125 593.515625 90.011719 593.332031 89.265625 C 593.144531 88.515625 592.9375 87.714844 592.886719 87.476562 C 592.835938 87.238281 592.714844 86.746094 592.613281 86.371094 C 592.527344 85.996094 592.410156 85.554688 592.375 85.402344 C 592.339844 85.230469 592.273438 84.957031 592.222656 84.789062 C 591.796875 83.171875 591.269531 81.027344 591.21875 80.753906 C 591.183594 80.566406 591.113281 80.296875 591.046875 80.160156 C 590.996094 80.023438 590.925781 79.714844 590.875 79.476562 C 590.824219 79.238281 590.636719 78.441406 590.433594 77.691406 C 590.246094 76.941406 590.042969 76.140625 589.992188 75.902344 C 589.9375 75.664062 589.871094 75.34375 589.820312 75.191406 C 589.769531 75.035156 589.699219 74.746094 589.667969 74.558594 C 589.617188 74.355469 589.546875 74.066406 589.496094 73.894531 C 589.15625 72.585938 588.710938 70.816406 588.644531 70.542969 C 588.59375 70.355469 588.507812 69.964844 588.441406 69.691406 C 588.371094 69.402344 588.320312 69.148438 588.304688 69.097656 C 588.285156 69.046875 588.234375 68.859375 588.167969 68.671875 C 588.117188 68.484375 588.03125 68.144531 587.980469 67.90625 C 587.878906 67.359375 587.246094 64.789062 587.007812 63.90625 C 586.90625 63.53125 586.785156 63.039062 586.753906 62.800781 C 586.703125 62.5625 586.632812 62.253906 586.582031 62.117188 C 586.496094 61.914062 585.832031 59.328125 585.390625 57.472656 C 585.355469 57.320312 585.289062 57.046875 585.234375 56.878906 C 585.203125 56.722656 584.929688 55.667969 584.65625 54.546875 C 584.382812 53.421875 584.078125 52.246094 583.976562 51.941406 C 583.890625 51.636719 583.804688 51.347656 583.804688 51.3125 C 583.820312 51.226562 583.683594 50.632812 583.53125 49.949219 C 583.480469 49.761719 583.292969 48.996094 583.105469 48.25 C 582.59375 46.273438 582.578125 46.242188 582.492188 45.78125 C 582.457031 45.542969 582.375 45.234375 582.324219 45.101562 C 582.1875 44.777344 581.761719 43.109375 581.65625 42.546875 C 581.625 42.308594 581.46875 41.664062 581.316406 41.101562 C 581.179688 40.539062 581.027344 39.941406 580.976562 39.773438 C 580.941406 39.601562 580.875 39.332031 580.824219 39.175781 C 580.773438 39.023438 580.6875 38.699219 580.652344 38.460938 C 580.601562 38.222656 580.398438 37.425781 580.210938 36.675781 C 580.023438 35.925781 579.816406 35.128906 579.765625 34.890625 C 579.714844 34.652344 579.5625 34.070312 579.425781 33.613281 C 579.289062 33.136719 579.1875 32.726562 579.1875 32.675781 C 579.167969 32.625 579.085938 32.285156 578.984375 31.910156 C 578.878906 31.535156 578.796875 31.179688 578.8125 31.109375 C 578.828125 31.042969 578.726562 30.683594 578.589844 30.3125 C 578.335938 29.597656 578.335938 29.5625 578.335938 29.273438 C 578.335938 29.171875 578.285156 29.101562 578.199219 29.101562 C 578.128906 29.101562 575.710938 31.46875 572.8125 34.359375 Z M 572.8125 34.359375 "/>
<path style=" stroke:none;fill-rule:nonzero;fill:rgb(0%,0%,0%);fill-opacity:1;" d="M 686.417969 88.941406 C 684.835938 89.28125 683.710938 89.945312 682.226562 91.425781 C 681.511719 92.140625 680.933594 92.804688 680.949219 92.871094 C 680.964844 92.957031 680.847656 93.261719 680.695312 93.554688 C 680.234375 94.421875 679.839844 96.582031 679.960938 97.585938 C 680.027344 98.0625 680.082031 98.503906 680.0625 98.574219 C 680.0625 98.863281 680.949219 101.007812 681.171875 101.261719 C 681.308594 101.414062 681.425781 101.621094 681.425781 101.703125 C 681.425781 101.925781 683.316406 103.78125 683.828125 104.085938 C 684.476562 104.460938 685.378906 104.871094 685.703125 104.921875 C 685.875 104.957031 686.164062 105.058594 686.351562 105.160156 C 686.863281 105.449219 688.890625 105.484375 690.046875 105.246094 C 691.804688 104.886719 692.84375 104.292969 694.257812 102.8125 C 695.585938 101.414062 696.046875 100.632812 696.421875 99.050781 C 696.726562 97.824219 696.695312 95.867188 696.351562 95.085938 C 696.21875 94.726562 696.132812 94.453125 696.183594 94.453125 C 696.21875 94.453125 696.132812 94.199219 695.960938 93.894531 C 695.808594 93.605469 695.6875 93.28125 695.707031 93.210938 C 695.757812 93.023438 692.398438 89.671875 692.210938 89.722656 C 692.144531 89.742188 691.835938 89.636719 691.546875 89.46875 C 690.339844 88.839844 688.054688 88.601562 686.417969 88.941406 Z M 690.046875 90.589844 C 690.234375 90.644531 690.695312 90.8125 691.070312 90.984375 C 691.429688 91.136719 691.785156 91.253906 691.855469 91.253906 C 691.921875 91.238281 692.519531 91.765625 693.183594 92.414062 C 693.832031 93.078125 694.359375 93.671875 694.34375 93.738281 C 694.34375 93.808594 694.460938 94.164062 694.632812 94.539062 C 695.058594 95.511719 695.125 95.917969 695.125 97.347656 C 695.144531 100.273438 693.523438 102.589844 690.78125 103.609375 C 689.453125 104.105469 687.136719 104.035156 685.941406 103.476562 C 685.480469 103.253906 685.023438 103.101562 684.953125 103.117188 C 684.785156 103.152344 682.449219 100.785156 682.484375 100.617188 C 682.484375 100.546875 682.3125 100.070312 682.074219 99.558594 C 681.683594 98.726562 681.632812 98.4375 681.664062 96.835938 C 681.699219 95.355469 681.765625 94.898438 682.109375 94.199219 C 682.328125 93.722656 682.5 93.296875 682.484375 93.246094 C 682.464844 93.128906 684.355469 91.238281 684.527344 91.222656 C 684.597656 91.203125 684.953125 91.085938 685.292969 90.933594 C 685.652344 90.777344 686.179688 90.589844 686.453125 90.523438 C 686.980469 90.386719 689.417969 90.421875 690.046875 90.589844 Z M 690.046875 90.589844 "/>
<path style=" stroke:none;fill-rule:nonzero;fill:rgb(0%,0%,0%);fill-opacity:1;" d="M 686.878906 91.867188 C 686.625 91.902344 685.617188 92.769531 684.238281 94.132812 L 682.023438 96.308594 L 685.515625 99.796875 L 688.992188 103.304688 L 690.289062 102.046875 L 687.390625 99.117188 L 688.363281 98.164062 C 690.015625 96.566406 690.304688 96.515625 691.53125 97.65625 C 692.023438 98.097656 692.585938 98.609375 692.808594 98.777344 L 693.199219 99.117188 L 693.867188 98.453125 C 694.242188 98.078125 694.546875 97.722656 694.546875 97.65625 C 694.546875 97.570312 694.34375 97.417969 694.085938 97.3125 C 693.816406 97.195312 693.046875 96.582031 692.347656 95.953125 C 691.53125 95.1875 690.96875 94.796875 690.695312 94.796875 C 690.390625 94.796875 690.289062 94.691406 690.289062 94.402344 C 690.269531 93.738281 689.539062 92.703125 688.769531 92.277344 C 688.003906 91.851562 687.59375 91.765625 686.878906 91.867188 Z M 688.464844 94.660156 C 688.753906 95.050781 688.769531 95.136719 688.53125 95.578125 C 688.378906 95.851562 687.851562 96.480469 687.355469 96.972656 L 686.4375 97.859375 L 684.664062 96.054688 L 685.601562 95.136719 C 687.082031 93.671875 687.644531 93.570312 688.464844 94.660156 Z M 688.464844 94.660156 "/>
<path style=" stroke:none;fill-rule:nonzero;fill:rgb(0%,0%,0%);fill-opacity:1;" d="M 468.425781 138.617188 L 442.78125 164.230469 L 488.757812 210.132812 L 534.710938 256.050781 L 560.273438 230.519531 C 574.332031 216.480469 585.832031 204.90625 585.832031 204.824219 C 585.832031 204.71875 583.804688 202.625 581.316406 200.140625 L 576.800781 195.632812 L 555.707031 216.703125 L 534.628906 237.753906 L 516.683594 219.851562 L 498.757812 201.929688 L 519.835938 180.875 L 540.933594 159.808594 L 536.332031 155.210938 L 531.730469 150.617188 L 510.652344 171.667969 L 489.558594 192.738281 L 475.292969 178.476562 L 461.015625 164.230469 L 482.109375 143.164062 L 503.1875 122.109375 L 498.621094 117.550781 L 494.074219 113.003906 Z M 468.425781 138.617188 "/>
<path style=" stroke:none;fill-rule:nonzero;fill:rgb(0%,0%,0%);fill-opacity:1;" d="M 380.246094 226.691406 L 375.644531 231.285156 L 421.617188 277.203125 L 467.574219 323.105469 L 489.300781 301.40625 C 501.246094 289.472656 511.027344 279.621094 511.027344 279.535156 C 511.027344 279.433594 509 277.339844 506.511719 274.855469 L 501.996094 270.34375 L 484.820312 287.5 L 467.660156 304.636719 L 426.339844 263.367188 C 403.609375 240.664062 384.984375 222.097656 384.933594 222.097656 C 384.878906 222.097656 382.769531 224.171875 380.246094 226.691406 Z M 380.246094 226.691406 "/>
<path style=" stroke:none;fill-rule:nonzero;fill:rgb(0%,0%,0%);fill-opacity:1;" d="M 346.082031 272.488281 C 345.570312 272.558594 344.804688 272.675781 344.375 272.726562 C 343.949219 272.777344 343.492188 272.847656 343.355469 272.898438 C 343.21875 272.933594 342.910156 273 342.671875 273.050781 C 341.242188 273.304688 337.75 274.445312 336.230469 275.144531 C 335.703125 275.382812 335.226562 275.605469 335.175781 275.605469 C 335.089844 275.636719 334.867188 275.757812 333.726562 276.402344 C 333.453125 276.574219 333.027344 276.796875 332.789062 276.914062 C 332.550781 277.035156 332.074219 277.355469 331.734375 277.628906 C 331.375 277.902344 331.085938 278.070312 331.085938 278.003906 C 331.085938 277.9375 330.761719 278.140625 330.371094 278.464844 C 329.960938 278.785156 329.519531 279.09375 329.382812 279.144531 C 329.246094 279.195312 328.582031 279.707031 327.898438 280.285156 C 327.234375 280.863281 326.621094 281.324219 326.554688 281.324219 C 326.484375 281.324219 325.886719 281.816406 325.207031 282.429688 C 324.523438 283.042969 323.910156 283.535156 323.84375 283.535156 C 323.519531 283.535156 318.730469 288.179688 306.070312 300.792969 L 292.40625 314.425781 L 338.363281 360.324219 L 384.335938 406.242188 L 388.886719 401.695312 L 393.453125 397.136719 L 372.117188 375.828125 L 350.785156 354.519531 L 359.441406 345.808594 C 364.195312 341.007812 368.214844 336.890625 368.367188 336.652344 C 368.523438 336.414062 369.425781 335.375 370.363281 334.371094 C 371.300781 333.347656 372.101562 332.429688 372.136719 332.328125 C 372.167969 332.207031 372.644531 331.613281 373.207031 331 C 373.753906 330.386719 374.195312 329.824219 374.195312 329.757812 C 374.195312 329.691406 374.691406 329.042969 375.304688 328.3125 C 375.917969 327.578125 376.410156 326.914062 376.410156 326.847656 C 376.410156 326.78125 376.652344 326.4375 376.921875 326.082031 C 377.210938 325.722656 377.433594 325.382812 377.433594 325.316406 C 377.433594 325.265625 377.621094 324.957031 377.84375 324.667969 C 378.304688 324.058594 378.710938 323.359375 379.699219 321.488281 C 380.058594 320.789062 380.449219 320.109375 380.535156 319.988281 C 380.636719 319.886719 380.65625 319.785156 380.585938 319.785156 C 380.519531 319.785156 380.535156 319.683594 380.636719 319.5625 C 380.824219 319.34375 381.675781 317.351562 381.796875 316.910156 C 381.832031 316.753906 382.035156 316.125 382.273438 315.480469 C 382.496094 314.847656 382.648438 314.339844 382.613281 314.339844 C 382.582031 314.339844 382.632812 314.152344 382.714844 313.929688 C 382.800781 313.710938 382.902344 313.183594 382.972656 312.789062 C 383.023438 312.382812 383.160156 311.617188 383.261719 311.105469 C 383.484375 309.929688 383.585938 304.6875 383.398438 303.445312 C 383.332031 302.9375 383.210938 302.171875 383.160156 301.746094 C 383.023438 300.824219 382.800781 299.667969 382.648438 299.105469 C 382.324219 297.898438 382.136719 297.285156 381.933594 296.65625 C 381.558594 295.53125 380.5 293.015625 380.296875 292.757812 C 380.195312 292.65625 380.175781 292.554688 380.246094 292.554688 C 380.3125 292.554688 380.296875 292.453125 380.210938 292.332031 C 380.109375 292.230469 379.835938 291.789062 379.617188 291.363281 C 378.609375 289.558594 378.40625 289.21875 378.183594 288.964844 C 378.046875 288.828125 377.945312 288.625 377.945312 288.539062 C 377.945312 288.4375 377.519531 287.859375 377.007812 287.226562 C 376.496094 286.613281 376.070312 286.019531 376.070312 285.917969 C 376.070312 285.679688 370.023438 279.621094 369.785156 279.621094 C 369.679688 279.621094 369.117188 279.230469 368.539062 278.753906 C 367.941406 278.277344 367.347656 277.851562 367.210938 277.800781 C 367.074219 277.730469 366.835938 277.59375 366.699219 277.476562 C 366.425781 277.253906 365.386719 276.660156 364.570312 276.25 C 364.296875 276.113281 363.851562 275.84375 363.597656 275.671875 C 363.324219 275.484375 363.121094 275.398438 363.121094 275.46875 C 363.121094 275.519531 363.019531 275.5 362.917969 275.398438 C 362.730469 275.246094 359.285156 273.765625 359.285156 273.851562 C 359.285156 273.867188 358.316406 273.613281 357.667969 273.410156 C 357.277344 273.289062 356.644531 273.136719 356.269531 273.085938 C 356.015625 273.035156 355.742188 272.964844 355.65625 272.914062 C 355.589844 272.882812 355.0625 272.777344 354.515625 272.726562 C 353.953125 272.660156 353.425781 272.558594 353.339844 272.523438 C 353.085938 272.371094 347.070312 272.335938 346.082031 272.488281 Z M 351.140625 285.96875 C 351.226562 286.019531 351.667969 286.105469 352.128906 286.15625 C 352.605469 286.207031 353.167969 286.324219 353.40625 286.410156 C 353.917969 286.582031 355.230469 286.957031 355.402344 286.957031 C 355.488281 286.957031 355.792969 287.109375 356.101562 287.3125 C 356.390625 287.5 356.644531 287.601562 356.644531 287.550781 C 356.644531 287.484375 356.832031 287.566406 357.070312 287.722656 C 357.308594 287.875 357.496094 287.941406 357.496094 287.890625 C 357.496094 287.839844 357.804688 287.976562 358.179688 288.214844 C 358.554688 288.453125 358.894531 288.640625 358.964844 288.640625 C 359.015625 288.640625 359.304688 288.8125 359.59375 289.015625 C 359.898438 289.234375 360.191406 289.40625 360.257812 289.40625 C 360.480469 289.40625 362.558594 291.210938 363.835938 292.503906 C 365.148438 293.832031 366.375 295.292969 366.578125 295.789062 C 366.648438 295.925781 366.921875 296.417969 367.210938 296.894531 C 368.589844 299.175781 369.699219 302.222656 370.074219 304.808594 C 370.328125 306.441406 370.140625 311.140625 369.835938 311.648438 C 369.785156 311.71875 369.714844 311.9375 369.664062 312.125 C 369.628906 312.3125 369.5625 312.636719 369.511719 312.839844 C 369.476562 313.046875 369.355469 313.285156 369.253906 313.386719 C 369.167969 313.472656 369.085938 313.660156 369.085938 313.792969 C 369.085938 314.03125 367.722656 316.875 367.074219 317.996094 C 366.648438 318.746094 365.386719 320.484375 364.398438 321.707031 C 363.9375 322.285156 363.546875 322.8125 363.546875 322.882812 C 363.546875 323.15625 357.207031 329.722656 349.796875 337.09375 L 341.734375 345.144531 L 326.316406 329.742188 L 310.894531 314.339844 L 321.203125 304.042969 C 326.875 298.375 331.578125 293.746094 331.648438 293.746094 C 331.734375 293.746094 332.398438 293.203125 333.128906 292.539062 C 333.863281 291.875 334.613281 291.246094 334.800781 291.125 C 334.988281 291.023438 335.601562 290.582031 336.164062 290.121094 C 336.726562 289.679688 337.253906 289.320312 337.324219 289.320312 C 337.390625 289.320312 337.695312 289.132812 338.019531 288.878906 C 338.328125 288.640625 338.582031 288.503906 338.582031 288.554688 C 338.582031 288.625 338.789062 288.519531 339.058594 288.351562 C 339.65625 287.941406 341.328125 287.125 341.753906 287.023438 C 341.921875 286.988281 342.417969 286.835938 342.828125 286.683594 C 344.582031 286.054688 346.285156 285.796875 348.652344 285.832031 C 349.933594 285.847656 351.054688 285.917969 351.140625 285.96875 Z M 351.140625 285.96875 "/>
<path style=" stroke:none;fill-rule:nonzero;fill:rgb(0%,0%,0%);fill-opacity:1;" d="M 226.5625 380.183594 L 225.386719 381.359375 L 225.695312 382.109375 C 225.847656 382.515625 226 382.960938 226.035156 383.09375 C 226.070312 383.230469 226.238281 383.707031 226.445312 384.167969 C 226.632812 384.609375 226.800781 385.035156 226.800781 385.105469 C 226.800781 385.238281 227.515625 387.144531 228.027344 388.457031 C 228.214844 388.914062 228.386719 389.375 228.402344 389.476562 C 228.421875 389.5625 228.589844 390.074219 228.796875 390.582031 C 229.253906 391.808594 229.765625 393.203125 229.785156 393.304688 C 229.785156 393.359375 229.886719 393.5625 230.003906 393.765625 C 230.125 393.988281 230.175781 394.15625 230.125 394.15625 C 230.074219 394.15625 230.140625 394.378906 230.292969 394.667969 C 230.449219 394.941406 230.515625 395.179688 230.449219 395.179688 C 230.398438 395.179688 230.464844 395.367188 230.617188 395.605469 C 230.773438 395.84375 230.855469 396.03125 230.824219 396.03125 C 230.773438 396.03125 230.925781 396.457031 231.148438 396.964844 C 231.386719 397.476562 231.519531 397.902344 231.488281 397.902344 C 231.4375 397.902344 231.519531 398.089844 231.675781 398.328125 C 231.828125 398.566406 231.894531 398.753906 231.84375 398.753906 C 231.777344 398.753906 231.84375 398.972656 232 399.261719 C 232.152344 399.535156 232.21875 399.773438 232.167969 399.773438 C 232.117188 399.773438 232.167969 399.945312 232.289062 400.148438 C 232.390625 400.371094 232.507812 400.609375 232.527344 400.710938 C 232.628906 401.101562 233.582031 403.636719 233.769531 403.976562 C 233.871094 404.199219 233.925781 404.367188 233.871094 404.367188 C 233.839844 404.367188 233.976562 404.792969 234.214844 405.304688 C 234.433594 405.816406 234.589844 406.242188 234.554688 406.242188 C 234.519531 406.242188 234.742188 406.855469 235.046875 407.601562 C 235.371094 408.351562 235.59375 408.964844 235.558594 408.964844 C 235.527344 408.964844 235.679688 409.390625 235.917969 409.898438 C 236.140625 410.425781 236.308594 410.871094 236.292969 410.886719 C 236.277344 410.902344 236.480469 411.5 236.753906 412.199219 C 237.722656 414.75 237.910156 415.242188 237.894531 415.347656 C 237.894531 415.378906 238.066406 415.855469 238.304688 416.367188 C 238.523438 416.878906 238.679688 417.304688 238.644531 417.304688 C 238.609375 417.304688 238.832031 417.914062 239.136719 418.664062 C 239.460938 419.414062 239.683594 420.027344 239.648438 420.027344 C 239.617188 420.027344 239.769531 420.453125 240.007812 420.960938 C 240.230469 421.472656 240.382812 421.898438 240.347656 421.898438 C 240.3125 421.898438 240.417969 422.222656 240.585938 422.613281 C 240.757812 423.023438 241.0625 423.839844 241.269531 424.453125 C 241.472656 425.0625 241.746094 425.746094 241.882812 425.984375 C 242 426.222656 242.121094 426.476562 242.121094 426.578125 C 242.15625 426.832031 242.511719 427.921875 242.632812 428.109375 C 242.699219 428.195312 242.886719 428.738281 243.074219 429.300781 C 243.246094 429.863281 243.515625 430.511719 243.671875 430.75 C 243.808594 430.96875 243.910156 431.207031 243.890625 431.257812 C 243.808594 431.410156 244.625 433.761719 245.253906 435.171875 C 245.359375 435.410156 245.441406 435.632812 245.460938 435.683594 C 245.527344 435.988281 245.851562 436.875 246.515625 438.660156 C 246.925781 439.785156 247.300781 440.839844 247.335938 441.011719 C 247.367188 441.164062 247.453125 441.367188 247.503906 441.46875 C 247.554688 441.554688 247.84375 442.269531 248.117188 443.035156 C 248.40625 443.820312 248.867188 445.0625 249.15625 445.808594 C 249.429688 446.558594 249.6875 447.289062 249.71875 447.425781 C 249.753906 447.5625 249.90625 447.988281 250.078125 448.363281 C 250.402344 449.144531 251.355469 451.679688 251.40625 451.9375 C 251.425781 452.023438 251.59375 452.53125 251.800781 453.042969 C 252.003906 453.554688 252.359375 454.507812 252.617188 455.171875 C 252.871094 455.816406 253.09375 456.429688 253.109375 456.53125 C 253.128906 456.617188 253.230469 456.921875 253.332031 457.210938 C 253.535156 457.757812 253.707031 458.269531 253.722656 458.402344 C 253.742188 458.4375 253.929688 458.898438 254.152344 459.425781 C 254.390625 459.9375 254.523438 460.359375 254.492188 460.359375 C 254.441406 460.359375 254.507812 460.53125 254.644531 460.734375 C 254.832031 461.058594 255.085938 461.789062 255.15625 462.234375 C 255.171875 462.335938 255.992188 464.480469 256.484375 465.703125 C 256.671875 466.164062 256.84375 466.65625 256.875 466.828125 C 256.910156 467 257.082031 467.492188 257.269531 467.953125 C 257.96875 469.671875 258.511719 471.167969 258.511719 471.289062 C 258.496094 471.371094 258.683594 471.847656 258.921875 472.359375 C 259.144531 472.886719 259.3125 473.328125 259.296875 473.347656 C 259.261719 473.378906 259.875 475.03125 260.574219 476.765625 C 260.761719 477.226562 260.933594 477.71875 260.964844 477.890625 C 261 478.0625 261.171875 478.554688 261.359375 479.015625 C 262.089844 480.835938 262.671875 482.402344 262.636719 482.433594 C 262.601562 482.46875 262.773438 482.910156 263.011719 483.421875 C 263.234375 483.933594 263.386719 484.359375 263.351562 484.359375 C 263.300781 484.359375 263.453125 484.765625 263.660156 485.242188 C 263.878906 485.734375 264.203125 486.605469 264.375 487.164062 C 264.542969 487.726562 264.800781 488.355469 264.9375 488.5625 C 265.074219 488.78125 265.140625 488.953125 265.089844 488.953125 C 265.003906 488.953125 265.191406 489.515625 265.636719 490.570312 C 265.925781 491.214844 266.351562 492.507812 266.316406 492.5625 C 266.300781 492.59375 266.386719 492.800781 266.503906 493.039062 C 266.640625 493.277344 266.761719 493.496094 266.761719 493.546875 C 266.914062 494.175781 267.167969 494.875 267.628906 495.964844 C 267.9375 496.695312 268.140625 497.292969 268.105469 497.292969 C 268.054688 497.292969 268.125 497.460938 268.242188 497.667969 C 268.363281 497.886719 268.464844 498.09375 268.464844 498.144531 C 268.601562 498.652344 268.890625 499.46875 269.589844 501.324219 C 270.066406 502.515625 270.476562 503.625 270.507812 503.757812 C 270.609375 504.152344 271.53125 506.652344 271.855469 507.417969 C 272.023438 507.792969 272.179688 508.21875 272.210938 508.355469 C 272.265625 508.609375 272.691406 509.765625 273.832031 512.777344 C 274.136719 513.578125 274.429688 514.394531 274.460938 514.601562 C 274.71875 515.707031 274.804688 515.636719 280.085938 510.363281 C 284.226562 506.226562 285.09375 505.273438 284.992188 505.019531 C 284.925781 504.832031 284.839844 504.609375 284.824219 504.523438 C 284.789062 504.421875 284.5 503.625 284.15625 502.738281 C 283.816406 501.851562 283.511719 500.984375 283.460938 500.832031 C 283.425781 500.679688 283.238281 500.183594 283.050781 499.761719 C 282.863281 499.335938 282.742188 498.992188 282.777344 498.992188 C 282.8125 498.992188 282.589844 498.382812 282.285156 497.632812 C 281.960938 496.882812 281.738281 496.269531 281.773438 496.269531 C 281.804688 496.269531 281.652344 495.84375 281.414062 495.335938 C 281.191406 494.824219 281.039062 494.398438 281.074219 494.398438 C 281.109375 494.398438 280.988281 494.042969 280.816406 493.617188 C 280.628906 493.171875 280.273438 492.253906 280.035156 491.539062 C 279.796875 490.824219 279.558594 490.179688 279.488281 490.074219 C 279.421875 489.972656 279.371094 489.855469 279.351562 489.804688 C 279.265625 489.359375 278.976562 488.511719 278.585938 487.539062 C 278.332031 486.910156 278.144531 486.398438 278.175781 486.398438 C 278.210938 486.398438 278.058594 485.972656 277.835938 485.464844 C 277.597656 484.953125 277.445312 484.527344 277.476562 484.527344 C 277.511719 484.527344 277.289062 483.914062 276.96875 483.167969 C 276.660156 482.417969 276.4375 481.804688 276.472656 481.804688 C 276.507812 481.804688 276.351562 481.378906 276.132812 480.867188 C 275.894531 480.359375 275.722656 479.882812 275.722656 479.847656 C 275.738281 479.796875 275.585938 479.355469 275.398438 478.859375 C 274.785156 477.261719 274.496094 476.375 274.546875 476.308594 C 274.582031 476.289062 274.460938 476.050781 274.292969 475.796875 C 274.136719 475.542969 274.035156 475.335938 274.085938 475.335938 C 274.136719 475.335938 274.070312 475.097656 273.917969 474.828125 C 273.761719 474.539062 273.695312 474.316406 273.730469 474.316406 C 273.78125 474.316406 273.558594 473.703125 273.234375 472.953125 C 272.910156 472.207031 272.691406 471.59375 272.722656 471.59375 C 272.773438 471.59375 272.621094 471.167969 272.382812 470.65625 C 272.160156 470.128906 271.972656 469.652344 271.972656 469.585938 C 271.972656 469.515625 271.769531 468.921875 271.515625 468.273438 C 270.542969 465.738281 270.390625 465.3125 270.40625 465.210938 C 270.40625 465.175781 270.234375 464.699219 269.996094 464.191406 C 269.777344 463.679688 269.621094 463.253906 269.65625 463.253906 C 269.691406 463.253906 269.570312 462.898438 269.402344 462.472656 C 269.214844 462.046875 269.058594 461.570312 269.058594 461.417969 C 269.058594 461.246094 277.683594 452.515625 288.214844 441.996094 L 307.347656 422.886719 L 308.011719 423.089844 C 308.386719 423.207031 308.695312 423.3125 308.710938 423.292969 C 308.746094 423.277344 309.121094 423.429688 309.5625 423.617188 C 310.332031 423.957031 312.035156 424.585938 312.425781 424.671875 C 312.527344 424.691406 312.699219 424.773438 312.800781 424.84375 C 312.921875 424.929688 313.160156 425.011719 313.332031 425.046875 C 313.5 425.0625 314.351562 425.371094 315.238281 425.710938 C 316.703125 426.273438 317.164062 426.425781 317.710938 426.542969 C 317.8125 426.578125 317.964844 426.628906 318.050781 426.699219 C 318.21875 426.800781 320.128906 427.515625 320.4375 427.582031 C 320.539062 427.601562 320.757812 427.703125 320.945312 427.804688 C 321.21875 427.941406 321.867188 428.160156 322.394531 428.261719 C 322.546875 428.316406 325.035156 429.25 326.023438 429.660156 C 326.554688 429.878906 326.996094 430.015625 326.996094 429.964844 C 326.996094 429.929688 327.234375 430 327.507812 430.152344 C 327.796875 430.304688 328.019531 430.375 328.019531 430.339844 C 328.019531 430.289062 328.632812 430.511719 329.382812 430.816406 C 330.132812 431.140625 330.746094 431.359375 330.746094 431.328125 C 330.746094 431.292969 331.171875 431.445312 331.683594 431.683594 C 332.191406 431.90625 332.621094 432.058594 332.621094 432.023438 C 332.621094 431.992188 333.128906 432.179688 333.777344 432.433594 C 334.730469 432.824219 335.585938 433.113281 336.027344 433.199219 C 336.078125 433.214844 336.539062 433.386719 337.050781 433.589844 C 339.65625 434.59375 340.390625 434.867188 340.664062 434.917969 C 340.816406 434.953125 341.105469 435.070312 341.292969 435.171875 C 341.496094 435.273438 341.652344 435.308594 341.652344 435.242188 C 341.652344 435.191406 341.835938 435.257812 342.078125 435.410156 C 342.316406 435.566406 342.503906 435.648438 342.503906 435.617188 C 342.503906 435.566406 342.929688 435.71875 343.441406 435.9375 C 343.949219 436.175781 344.375 436.332031 344.375 436.28125 C 344.375 436.246094 344.804688 436.398438 345.3125 436.621094 C 345.824219 436.859375 346.25 437.011719 346.25 436.960938 C 346.25 436.925781 346.695312 437.0625 347.238281 437.285156 C 348.109375 437.640625 349.777344 438.269531 350 438.339844 C 350.121094 438.355469 350.664062 438.558594 351.175781 438.765625 C 351.566406 438.933594 351.925781 438.609375 356.492188 434.050781 C 360.171875 430.390625 361.367188 429.097656 361.230469 428.945312 C 361.074219 428.757812 360.070312 428.332031 359.710938 428.28125 C 359.660156 428.28125 359.558594 428.230469 359.457031 428.179688 C 359.320312 428.09375 358.109375 427.652344 357.839844 427.601562 C 357.789062 427.582031 357.566406 427.496094 357.328125 427.378906 C 357.089844 427.277344 355.828125 426.800781 354.515625 426.324219 C 353.203125 425.847656 351.703125 425.300781 351.191406 425.097656 C 350.679688 424.910156 350.050781 424.65625 349.796875 424.519531 C 349.523438 424.367188 349.320312 424.296875 349.320312 424.347656 C 349.320312 424.398438 348.703125 424.179688 347.957031 423.855469 C 347.207031 423.53125 346.59375 423.3125 346.59375 423.34375 C 346.59375 423.394531 346.167969 423.242188 345.65625 423.003906 C 345.125 422.785156 344.683594 422.613281 344.667969 422.628906 C 344.632812 422.664062 342.960938 422.050781 341.222656 421.355469 C 340.765625 421.167969 340.304688 420.996094 340.203125 420.980469 C 340.117188 420.960938 339.84375 420.84375 339.605469 420.707031 C 339.367188 420.589844 339.164062 420.503906 339.128906 420.519531 C 339.09375 420.554688 338.683594 420.417969 338.191406 420.230469 C 337.695312 420.042969 336.777344 419.6875 336.113281 419.429688 C 335.464844 419.175781 334.800781 418.953125 334.664062 418.921875 C 334.527344 418.886719 334.050781 418.714844 333.589844 418.511719 C 333.148438 418.324219 332.722656 418.171875 332.652344 418.152344 C 332.585938 418.152344 331.734375 417.847656 330.746094 417.457031 C 327.660156 416.25 327.082031 416.042969 326.910156 416.011719 C 326.808594 415.992188 326.347656 415.824219 325.886719 415.636719 C 324.765625 415.191406 322.496094 414.34375 322.394531 414.324219 C 322.34375 414.324219 322.140625 414.222656 321.933594 414.105469 C 321.714844 413.984375 321.542969 413.933594 321.542969 413.984375 C 321.542969 414.035156 321.320312 413.96875 321.03125 413.8125 C 320.757812 413.660156 320.519531 413.59375 320.519531 413.644531 C 320.519531 413.695312 320.332031 413.609375 320.09375 413.457031 C 319.855469 413.304688 319.667969 413.21875 319.667969 413.269531 C 319.667969 413.335938 319.054688 413.117188 318.304688 412.792969 C 317.554688 412.46875 316.941406 412.25 316.941406 412.28125 C 316.941406 412.316406 316.515625 412.164062 316.003906 411.941406 C 315.496094 411.703125 315.066406 411.550781 315.066406 411.585938 C 315.066406 411.617188 314.453125 411.398438 313.703125 411.074219 C 312.957031 410.769531 312.273438 410.496094 312.207031 410.480469 C 312.070312 410.445312 311.625 410.292969 310.347656 409.816406 C 309.855469 409.628906 309.035156 409.320312 308.558594 409.152344 C 307.519531 408.777344 304.914062 407.808594 304.417969 407.601562 C 303.683594 407.3125 302.882812 407.007812 302.800781 407.007812 C 302.75 407.007812 302.527344 406.886719 302.289062 406.75 C 302.050781 406.632812 301.863281 406.5625 301.863281 406.597656 C 301.863281 406.667969 300.429688 406.140625 298.472656 405.355469 C 298.011719 405.167969 297.515625 405 297.347656 404.964844 C 297.175781 404.929688 296.683594 404.761719 296.222656 404.574219 C 294.773438 403.996094 292.847656 403.261719 292.746094 403.261719 C 292.695312 403.261719 292.59375 403.210938 292.492188 403.144531 C 292.304688 403.023438 290.429688 402.34375 290.019531 402.242188 C 289.882812 402.207031 289.457031 402.054688 289.082031 401.882812 C 288.144531 401.492188 285.742188 400.609375 285.351562 400.539062 C 285.179688 400.503906 284.941406 400.386719 284.824219 400.285156 C 284.703125 400.183594 284.464844 400.082031 284.292969 400.027344 C 284.105469 399.996094 283.050781 399.621094 281.925781 399.179688 C 280.800781 398.753906 279.746094 398.359375 279.589844 398.328125 C 279.4375 398.292969 278.945312 398.105469 278.515625 397.917969 C 278.089844 397.730469 277.75 397.613281 277.75 397.644531 C 277.75 397.679688 277.136719 397.460938 276.386719 397.136719 C 275.636719 396.8125 275.023438 396.589844 275.023438 396.640625 C 275.023438 396.675781 274.835938 396.589844 274.597656 396.4375 C 274.359375 396.285156 274.171875 396.199219 274.171875 396.25 C 274.171875 396.300781 273.746094 396.164062 273.234375 395.945312 C 272.722656 395.707031 272.28125 395.535156 272.246094 395.554688 C 272.210938 395.585938 270.234375 394.855469 268.820312 394.292969 C 268.363281 394.105469 267.851562 393.9375 267.664062 393.902344 C 267.476562 393.851562 267.238281 393.765625 267.117188 393.679688 C 267.015625 393.613281 266.625 393.441406 266.25 393.324219 C 265.875 393.203125 265.414062 393.050781 265.226562 392.964844 C 265.039062 392.898438 264.238281 392.59375 263.4375 392.285156 C 262.636719 391.980469 261.5625 391.570312 261.050781 391.382812 C 260.539062 391.179688 260.046875 391.007812 259.945312 390.992188 C 259.859375 390.976562 259.246094 390.753906 258.582031 390.5 C 257.304688 390.003906 257.199219 389.972656 255.785156 389.390625 C 255.292969 389.1875 254.746094 389 254.578125 388.96875 C 254.40625 388.933594 253.910156 388.761719 253.453125 388.574219 C 251.800781 387.910156 250.230469 387.332031 250.113281 387.332031 C 250.042969 387.332031 249.566406 387.144531 249.039062 386.925781 C 248.527344 386.6875 248.101562 386.550781 248.101562 386.585938 C 248.101562 386.636719 247.929688 386.585938 247.726562 386.464844 C 247.503906 386.363281 247.265625 386.242188 247.164062 386.226562 C 247.078125 386.210938 246.6875 386.054688 246.3125 385.902344 C 245.546875 385.5625 243.039062 384.644531 242.648438 384.542969 C 242.101562 384.390625 237.773438 382.722656 237.332031 382.484375 C 237.058594 382.347656 236.855469 382.261719 236.855469 382.3125 C 236.855469 382.363281 236.429688 382.226562 235.917969 381.988281 C 235.40625 381.769531 234.980469 381.613281 234.980469 381.648438 C 234.980469 381.683594 234.367188 381.460938 233.617188 381.136719 C 232.867188 380.816406 232.253906 380.59375 232.253906 380.628906 C 232.253906 380.679688 231.828125 380.527344 231.316406 380.289062 C 230.804688 380.066406 230.378906 379.929688 230.378906 379.980469 C 230.378906 380.03125 230.191406 379.945312 229.953125 379.792969 C 229.714844 379.640625 229.527344 379.554688 229.527344 379.589844 C 229.527344 379.640625 229.203125 379.519531 228.8125 379.351562 C 228.402344 379.164062 227.996094 379.011719 227.910156 379.011719 C 227.808594 379.011719 227.210938 379.539062 226.5625 380.183594 Z M 247.878906 400.726562 C 248.527344 400.964844 249.125 401.1875 249.207031 401.203125 C 249.3125 401.21875 249.550781 401.339844 249.769531 401.457031 C 249.992188 401.578125 250.332031 401.714844 250.539062 401.746094 C 250.742188 401.800781 251 401.851562 251.082031 401.882812 C 251.183594 401.902344 251.425781 402.019531 251.644531 402.140625 C 251.867188 402.257812 252.171875 402.378906 252.328125 402.410156 C 252.601562 402.460938 253.109375 402.648438 255.941406 403.738281 C 256.449219 403.945312 256.960938 404.113281 257.046875 404.128906 C 257.148438 404.148438 257.609375 404.316406 258.070312 404.503906 C 259.195312 404.949219 261.460938 405.796875 261.5625 405.816406 C 261.613281 405.816406 261.820312 405.917969 262.039062 406.035156 C 262.246094 406.15625 262.414062 406.207031 262.414062 406.15625 C 262.414062 406.105469 262.652344 406.171875 262.925781 406.324219 C 263.214844 406.480469 263.4375 406.546875 263.4375 406.496094 C 263.4375 406.445312 263.625 406.53125 263.863281 406.683594 C 264.101562 406.835938 264.289062 406.921875 264.289062 406.871094 C 264.289062 406.800781 264.902344 407.023438 265.652344 407.347656 C 266.402344 407.671875 267.015625 407.890625 267.015625 407.859375 C 267.015625 407.824219 267.441406 407.976562 267.953125 408.199219 C 268.464844 408.4375 268.941406 408.625 269.027344 408.625 C 269.144531 408.625 271.15625 409.355469 272.042969 409.730469 C 272.484375 409.917969 273.234375 410.1875 273.492188 410.242188 C 273.542969 410.257812 273.761719 410.34375 274 410.445312 C 274.242188 410.546875 274.855469 410.785156 275.363281 410.972656 C 275.875 411.160156 276.949219 411.566406 277.75 411.875 C 278.550781 412.179688 279.285156 412.453125 279.371094 412.46875 C 279.691406 412.539062 283.511719 413.984375 285.488281 414.785156 C 285.945312 414.972656 286.441406 415.140625 286.613281 415.175781 C 286.78125 415.210938 287.277344 415.378906 287.734375 415.566406 C 289.730469 416.351562 290.972656 416.828125 291.210938 416.878906 C 291.347656 416.910156 291.773438 417.066406 292.132812 417.21875 C 292.507812 417.371094 292.933594 417.523438 293.070312 417.558594 C 294.28125 417.8125 295.082031 416.929688 278.960938 433.027344 C 263.949219 448.023438 263.828125 448.140625 263.660156 447.648438 C 263.554688 447.394531 263.265625 446.625 263.027344 445.980469 C 262.773438 445.316406 262.566406 444.738281 262.566406 444.667969 C 262.585938 444.585938 262.398438 444.109375 262.160156 443.597656 C 261.9375 443.085938 261.785156 442.660156 261.820312 442.660156 C 261.851562 442.660156 261.632812 442.046875 261.308594 441.300781 C 260.984375 440.550781 260.710938 439.871094 260.710938 439.800781 C 260.675781 439.460938 260.472656 438.796875 260.320312 438.492188 C 260.214844 438.304688 260.113281 438.066406 260.097656 437.980469 C 260.082031 437.878906 259.789062 437.078125 259.449219 436.195312 C 259.109375 435.308594 258.800781 434.457031 258.75 434.320312 C 258.648438 433.929688 257.730469 431.429688 257.40625 430.664062 C 257.234375 430.289062 257.082031 429.863281 257.046875 429.726562 C 257.011719 429.589844 256.824219 429.011719 256.621094 428.449219 C 256.417969 427.890625 256.144531 427.125 256.023438 426.75 C 255.90625 426.375 255.648438 425.710938 255.445312 425.25 C 255.257812 424.808594 255.105469 424.398438 255.105469 424.347656 C 255.121094 424.265625 254.933594 423.753906 253.964844 421.21875 C 253.691406 420.519531 253.484375 419.90625 253.503906 419.855469 C 253.503906 419.804688 253.453125 419.636719 253.347656 419.464844 C 253.265625 419.292969 253.164062 419.023438 253.128906 418.867188 C 253.078125 418.597656 252.804688 417.863281 251.800781 415.261719 C 251.59375 414.75 251.425781 414.289062 251.425781 414.238281 C 251.40625 414.019531 250.09375 410.53125 249.890625 410.15625 C 249.769531 409.917969 249.652344 409.644531 249.636719 409.558594 C 249.582031 409.101562 249.363281 408.4375 248.9375 407.382812 C 248.679688 406.75 248.492188 406.242188 248.527344 406.242188 C 248.5625 406.242188 248.40625 405.816406 248.1875 405.304688 C 247.949219 404.792969 247.8125 404.367188 247.84375 404.367188 C 247.898438 404.367188 247.84375 404.199219 247.742188 403.976562 C 247.503906 403.570312 246.585938 401.066406 246.484375 400.574219 C 246.398438 400.199219 246.515625 400.199219 247.878906 400.726562 Z M 247.878906 400.726562 "/>
<path style=" stroke:none;fill-rule:nonzero;fill:rgb(0%,0%,0%);fill-opacity:1;" d="M 128.480469 478.144531 L 123.964844 482.65625 L 169.9375 528.574219 L 215.894531 574.472656 L 237.621094 552.773438 C 249.566406 540.84375 259.347656 530.988281 259.347656 530.90625 C 259.347656 530.800781 257.320312 528.707031 254.832031 526.222656 L 250.316406 521.714844 L 233.054688 538.953125 L 215.8125 556.175781 L 174.488281 514.90625 C 151.757812 492.203125 133.132812 473.636719 133.082031 473.636719 C 133.03125 473.636719 130.96875 475.660156 128.480469 478.144531 Z M 128.480469 478.144531 "/>
<path style=" stroke:none;fill-rule:nonzero;fill:rgb(0%,0%,0%);fill-opacity:1;" d="M 91.675781 534.953125 C 91.625 534.988281 90.753906 535.074219 89.714844 535.140625 C 87.910156 535.246094 87.003906 535.328125 85.710938 535.515625 C 85.386719 535.566406 84.808594 535.636719 84.449219 535.667969 C 84.074219 535.722656 83.667969 535.789062 83.511719 535.839844 C 83.359375 535.875 82.933594 535.960938 82.558594 536.027344 C 81.929688 536.113281 78.078125 536.980469 77.277344 537.21875 C 77.089844 537.269531 76.867188 537.320312 76.765625 537.355469 C 74.738281 537.898438 72.453125 538.664062 71.363281 539.140625 C 70.902344 539.328125 70.546875 539.449219 70.546875 539.398438 C 70.546875 539.347656 70.273438 539.464844 69.949219 539.667969 C 69.625 539.875 69.351562 539.976562 69.351562 539.925781 C 69.351562 539.855469 69.164062 539.925781 68.925781 540.078125 C 68.6875 540.230469 68.5 540.316406 68.5 540.265625 C 68.5 540.214844 68.332031 540.265625 68.125 540.382812 C 67.902344 540.503906 67.699219 540.605469 67.648438 540.605469 C 67.359375 540.640625 61.34375 543.738281 60.984375 544.027344 C 60.847656 544.144531 60.476562 544.382812 60.132812 544.570312 C 59.792969 544.757812 59.332031 545.011719 59.113281 545.148438 C 58.890625 545.269531 58.257812 545.695312 57.730469 546.101562 C 57.1875 546.511719 56.742188 546.78125 56.742188 546.730469 C 56.742188 546.664062 56.367188 546.9375 55.890625 547.328125 C 55.429688 547.71875 55.039062 547.992188 55.039062 547.921875 C 55.039062 547.855469 54.628906 548.144531 54.152344 548.554688 C 53.660156 548.960938 52.789062 549.640625 52.226562 550.050781 C 50.796875 551.121094 44.371094 557.453125 42.617188 559.53125 C 40.863281 561.605469 39.617188 563.171875 39.617188 563.324219 C 39.617188 563.375 39.363281 563.734375 39.074219 564.125 C 38.765625 564.5 38.511719 564.875 38.511719 564.925781 C 38.511719 564.992188 38.21875 565.417969 37.878906 565.894531 C 37.523438 566.355469 37.230469 566.796875 37.230469 566.867188 C 37.230469 566.933594 37.0625 567.222656 36.839844 567.527344 C 36.636719 567.820312 36.464844 568.109375 36.464844 568.175781 C 36.464844 568.226562 36.242188 568.601562 35.988281 568.992188 C 35.714844 569.382812 35.015625 570.695312 34.4375 571.917969 C 33.859375 573.128906 33.226562 574.40625 33.074219 574.726562 C 32.902344 575.050781 32.511719 575.96875 32.222656 576.769531 C 31.914062 577.570312 31.59375 578.371094 31.523438 578.558594 C 31.21875 579.339844 30.925781 580.105469 30.910156 580.257812 C 30.894531 580.34375 30.738281 580.804688 30.585938 581.261719 C 30.433594 581.738281 30.175781 582.539062 30.042969 583.050781 C 29.90625 583.578125 29.769531 584.121094 29.71875 584.257812 C 29.460938 585.210938 29.136719 586.640625 29.054688 587.136719 C 29 587.441406 28.933594 587.746094 28.898438 587.816406 C 28.867188 587.867188 28.78125 588.191406 28.730469 588.511719 C 28.679688 588.835938 28.609375 589.261719 28.558594 589.449219 C 28.40625 590.214844 28.234375 591.355469 28.183594 591.832031 C 28.167969 592.105469 28.097656 592.648438 28.046875 593.023438 C 27.980469 593.398438 27.894531 594.199219 27.828125 594.808594 C 27.671875 596.257812 27.671875 605.617188 27.828125 607.148438 C 28.011719 608.96875 28.199219 610.433594 28.371094 611.320312 C 28.421875 611.558594 28.492188 612.015625 28.523438 612.339844 C 28.574219 612.664062 28.730469 613.496094 28.867188 614.160156 C 29.019531 614.839844 29.171875 615.605469 29.222656 615.863281 C 29.273438 616.136719 29.429688 616.765625 29.5625 617.273438 C 29.71875 617.785156 29.871094 618.363281 29.921875 618.550781 C 30.042969 618.996094 30.058594 619.097656 30.3125 620 C 30.433594 620.421875 30.535156 620.78125 30.535156 620.796875 C 30.535156 620.816406 30.722656 621.359375 30.960938 621.988281 C 31.183594 622.621094 31.40625 623.28125 31.4375 623.4375 C 31.472656 623.589844 31.59375 623.878906 31.695312 624.066406 C 31.796875 624.269531 31.847656 624.421875 31.796875 624.421875 C 31.675781 624.421875 33.535156 628.847656 33.757812 629.136719 C 33.859375 629.257812 33.890625 629.359375 33.839844 629.359375 C 33.773438 629.359375 33.875 629.597656 34.078125 629.871094 C 34.285156 630.160156 34.402344 630.378906 34.351562 630.378906 C 34.234375 630.378906 34.878906 631.65625 35.308594 632.304688 C 35.496094 632.558594 35.578125 632.761719 35.511719 632.761719 C 35.460938 632.761719 35.476562 632.863281 35.578125 632.984375 C 35.664062 633.085938 35.9375 633.527344 36.160156 633.953125 C 36.398438 634.378906 36.753906 635.027344 36.976562 635.402344 C 37.199219 635.773438 37.453125 636.234375 37.554688 636.421875 C 38.03125 637.253906 39.429688 639.347656 39.753906 639.707031 C 39.941406 639.910156 40.042969 640.082031 39.976562 640.082031 C 39.90625 640.082031 40.164062 640.453125 40.539062 640.914062 C 40.929688 641.375 41.238281 641.800781 41.238281 641.867188 C 41.238281 641.9375 41.800781 642.652344 42.480469 643.46875 C 43.144531 644.265625 43.691406 645 43.65625 645.066406 C 43.605469 645.253906 53.609375 655.246094 53.796875 655.195312 C 53.863281 655.160156 54.578125 655.6875 55.363281 656.332031 C 56.148438 656.996094 56.828125 657.523438 56.894531 657.523438 C 56.949219 657.523438 57.339844 657.796875 57.75 658.121094 C 58.140625 658.445312 58.5 658.683594 58.515625 658.632812 C 58.53125 658.582031 58.855469 658.785156 59.214844 659.074219 C 59.929688 659.617188 61.871094 660.910156 62.023438 660.929688 C 62.078125 660.929688 62.367188 661.097656 62.671875 661.320312 C 62.960938 661.542969 63.21875 661.675781 63.21875 661.609375 C 63.21875 661.558594 63.542969 661.730469 63.949219 662 C 64.804688 662.578125 69.183594 664.792969 69.183594 664.640625 C 69.183594 664.585938 69.285156 664.621094 69.402344 664.722656 C 69.574219 664.878906 73.167969 666.441406 73.324219 666.441406 C 73.375 666.441406 73.988281 666.648438 74.550781 666.851562 C 74.839844 666.96875 75.09375 667.054688 75.144531 667.054688 C 75.195312 667.074219 75.777344 667.257812 76.425781 667.480469 C 77.089844 667.703125 77.703125 667.90625 77.789062 667.921875 C 77.890625 667.941406 78.554688 668.128906 79.269531 668.332031 C 80.003906 668.519531 80.734375 668.722656 80.941406 668.757812 C 81.128906 668.808594 81.449219 668.894531 81.671875 668.945312 C 81.875 668.996094 82.199219 669.0625 82.386719 669.113281 C 82.574219 669.148438 83.121094 669.269531 83.582031 669.351562 C 84.058594 669.457031 84.585938 669.574219 84.773438 669.589844 C 84.960938 669.625 85.351562 669.695312 85.625 669.746094 C 85.914062 669.8125 86.425781 669.898438 86.765625 669.949219 C 87.125 669.984375 87.671875 670.066406 87.960938 670.117188 C 90.074219 670.476562 92.765625 670.628906 96.871094 670.628906 C 100.960938 670.628906 102.769531 670.527344 105.816406 670.101562 C 106.242188 670.050781 106.855469 669.964844 107.179688 669.933594 C 107.503906 669.878906 107.898438 669.8125 108.03125 669.777344 C 108.167969 669.726562 108.59375 669.660156 108.96875 669.589844 C 109.34375 669.539062 110.453125 669.300781 111.441406 669.082031 C 113.640625 668.570312 113.792969 668.519531 115.019531 668.160156 C 115.445312 668.027344 115.820312 667.921875 115.871094 667.90625 C 116.023438 667.871094 117.832031 667.292969 118.085938 667.191406 C 118.222656 667.125 118.375 667.074219 118.425781 667.054688 C 118.480469 667.039062 118.785156 666.953125 119.109375 666.851562 C 119.960938 666.597656 123.285156 665.21875 124.390625 664.65625 C 124.902344 664.382812 125.363281 664.164062 125.414062 664.164062 C 125.738281 664.109375 129.554688 662.035156 130.152344 661.59375 C 130.441406 661.355469 130.695312 661.21875 130.695312 661.269531 C 130.695312 661.335938 131.019531 661.132812 131.410156 660.808594 C 131.804688 660.503906 132.144531 660.28125 132.160156 660.332031 C 132.179688 660.382812 132.453125 660.230469 132.773438 659.992188 C 133.082031 659.753906 133.523438 659.464844 133.746094 659.363281 C 133.96875 659.242188 134.511719 658.835938 134.957031 658.460938 C 135.398438 658.085938 135.824219 657.78125 135.894531 657.78125 C 135.960938 657.78125 136.421875 657.441406 136.898438 657.046875 C 137.375 656.640625 137.851562 656.265625 137.972656 656.230469 C 138.875 655.90625 148.929688 645.867188 148.929688 645.269531 C 148.929688 645.203125 149.320312 644.691406 149.796875 644.148438 C 150.257812 643.601562 150.648438 643.109375 150.632812 643.058594 C 150.632812 643.007812 150.972656 642.515625 151.417969 641.953125 C 151.84375 641.40625 152.199219 640.898438 152.199219 640.8125 C 152.199219 640.746094 152.421875 640.402344 152.695312 640.0625 C 152.96875 639.722656 153.1875 639.382812 153.1875 639.316406 C 153.1875 639.230469 153.375 638.921875 153.613281 638.617188 C 153.851562 638.3125 154.039062 638.003906 154.039062 637.953125 C 154.039062 637.886719 154.195312 637.628906 154.363281 637.375 C 154.535156 637.136719 155.011719 636.320312 155.402344 635.570312 C 155.796875 634.820312 156.203125 634.105469 156.289062 633.988281 C 156.390625 633.886719 156.410156 633.785156 156.359375 633.785156 C 156.289062 633.785156 156.375 633.578125 156.5625 633.308594 C 156.75 633.050781 156.921875 632.761719 156.9375 632.675781 C 156.953125 632.574219 157.226562 631.960938 157.535156 631.300781 C 158.589844 629.085938 160.261719 624.679688 160.617188 623.230469 C 160.652344 623.097656 160.789062 622.550781 160.941406 622.039062 C 161.09375 621.53125 161.25 620.96875 161.28125 620.796875 C 161.316406 620.628906 161.386719 620.355469 161.4375 620.203125 C 161.488281 620.050781 161.554688 619.726562 161.605469 619.488281 C 161.65625 619.25 161.8125 618.601562 161.949219 618.042969 C 162.082031 617.480469 162.238281 616.679688 162.304688 616.253906 C 162.375 615.84375 162.441406 615.453125 162.476562 615.402344 C 162.492188 615.351562 162.578125 614.859375 162.644531 614.296875 C 162.695312 613.753906 162.78125 613.242188 162.816406 613.191406 C 162.832031 613.140625 162.917969 612.511719 162.96875 611.796875 C 163.039062 611.082031 163.125 610.316406 163.175781 610.09375 C 163.328125 609.445312 163.378906 600.613281 163.242188 599.234375 C 163.15625 598.539062 163.054688 597.464844 163.003906 596.851562 C 162.9375 596.238281 162.851562 595.558594 162.816406 595.320312 C 162.765625 595.082031 162.695312 594.65625 162.644531 594.386719 C 162.527344 593.484375 162.375 592.511719 162.304688 592.257812 C 162.269531 592.121094 162.1875 591.660156 162.136719 591.238281 C 162.066406 590.828125 162 590.4375 161.964844 590.367188 C 161.929688 590.316406 161.863281 590.046875 161.8125 589.773438 C 161.742188 589.382812 160.976562 586.4375 160.601562 585.109375 C 160.449219 584.582031 159.953125 583.136719 159.714844 582.472656 C 159.578125 582.097656 159.441406 581.671875 159.410156 581.535156 C 159.203125 580.515625 155.964844 573.402344 155.199219 572.292969 C 155.011719 572.039062 154.925781 571.835938 154.996094 571.835938 C 155.046875 571.835938 155.027344 571.734375 154.925781 571.613281 C 154.839844 571.511719 154.601562 571.121094 154.398438 570.761719 C 153.480469 569.128906 153.308594 568.855469 152.917969 568.347656 C 152.695312 568.039062 152.507812 567.75 152.507812 567.664062 C 152.507812 567.597656 152.285156 567.257812 152.03125 566.917969 C 151.757812 566.574219 151.5 566.183594 151.449219 566.046875 C 151.382812 565.914062 150.957031 565.316406 150.480469 564.722656 C 150.003906 564.140625 149.660156 563.664062 149.710938 563.664062 C 149.765625 563.664062 149.421875 563.222656 148.945312 562.660156 C 148.46875 562.117188 148.078125 561.605469 148.078125 561.539062 C 148.078125 560.941406 137.664062 550.542969 136.78125 550.238281 C 136.660156 550.203125 136.148438 549.796875 135.621094 549.351562 C 135.09375 548.894531 134.597656 548.519531 134.546875 548.519531 C 134.480469 548.519531 133.949219 548.128906 133.355469 547.667969 C 132.757812 547.191406 132.210938 546.816406 132.144531 546.816406 C 132.078125 546.816406 131.734375 546.578125 131.378906 546.304688 C 131.019531 546.015625 130.679688 545.796875 130.609375 545.796875 C 130.527344 545.796875 130.234375 545.609375 129.929688 545.386719 C 129.640625 545.148438 129.113281 544.808594 128.769531 544.621094 C 128.429688 544.417969 127.851562 544.09375 127.507812 543.90625 C 126.878906 543.550781 126.128906 543.125 124.613281 542.308594 C 124.203125 542.085938 123.878906 541.949219 123.878906 541.984375 C 123.878906 542.019531 123.574219 541.863281 123.199219 541.625 C 122.824219 541.386719 122.515625 541.25 122.515625 541.304688 C 122.515625 541.371094 122.414062 541.335938 122.3125 541.234375 C 122.089844 541.066406 117.183594 539.003906 116.722656 538.886719 C 116.585938 538.851562 115.957031 538.648438 115.328125 538.410156 C 114.679688 538.1875 114.167969 538.035156 114.167969 538.070312 C 114.167969 538.121094 114.015625 538.070312 113.808594 537.96875 C 113.621094 537.863281 113.332031 537.746094 113.179688 537.710938 C 113.027344 537.660156 112.308594 537.472656 111.613281 537.285156 C 110.914062 537.097656 110.195312 536.894531 110.027344 536.859375 C 109.855469 536.828125 109.582031 536.757812 109.429688 536.707031 C 109.277344 536.65625 108.886719 536.570312 108.5625 536.519531 C 108.238281 536.46875 107.929688 536.382812 107.878906 536.351562 C 107.8125 536.316406 107.417969 536.25 107.011719 536.179688 C 106.585938 536.128906 105.9375 536.011719 105.5625 535.925781 C 105.1875 535.839844 104.503906 535.722656 104.027344 535.667969 C 103.570312 535.601562 103.023438 535.535156 102.820312 535.5 C 102.496094 535.449219 101.183594 535.3125 99.597656 535.140625 C 98.371094 535.023438 91.761719 534.851562 91.675781 534.953125 Z M 98.949219 548.570312 C 99.15625 548.621094 99.871094 548.722656 100.570312 548.773438 C 101.25 548.84375 101.847656 548.910156 101.898438 548.945312 C 101.949219 548.976562 102.394531 549.046875 102.886719 549.113281 C 103.738281 549.199219 107.488281 550 107.691406 550.136719 C 107.761719 550.167969 107.980469 550.238281 108.21875 550.289062 C 108.441406 550.324219 108.953125 550.476562 109.363281 550.628906 C 109.753906 550.765625 110.128906 550.882812 110.164062 550.882812 C 110.382812 550.882812 111.953125 551.414062 112.683594 551.734375 C 113.128906 551.921875 113.484375 552.042969 113.484375 551.992188 C 113.484375 551.941406 113.757812 552.058594 114.082031 552.261719 C 114.40625 552.46875 114.679688 552.585938 114.679688 552.535156 C 114.679688 552.46875 114.867188 552.550781 115.085938 552.707031 C 115.328125 552.839844 115.582031 552.976562 115.648438 552.976562 C 115.71875 552.960938 116.398438 553.265625 117.148438 553.609375 C 117.898438 553.964844 118.597656 554.289062 118.683594 554.304688 C 118.785156 554.324219 119.175781 554.578125 119.585938 554.851562 C 119.976562 555.121094 120.300781 555.292969 120.300781 555.242188 C 120.300781 555.171875 120.523438 555.292969 120.796875 555.480469 C 121.070312 555.683594 121.339844 555.835938 121.410156 555.835938 C 121.476562 555.835938 121.902344 556.109375 122.347656 556.433594 C 122.789062 556.757812 123.214844 557.027344 123.285156 557.027344 C 123.351562 557.027344 123.691406 557.25 124.050781 557.539062 C 124.410156 557.8125 124.75 558.050781 124.816406 558.050781 C 124.902344 558.050781 125.261719 558.304688 125.652344 558.609375 C 126.042969 558.933594 126.46875 559.222656 126.605469 559.273438 C 126.742188 559.34375 127.5625 560.007812 128.429688 560.753906 C 129.300781 561.519531 130.066406 562.132812 130.132812 562.132812 C 130.304688 562.132812 135.980469 567.785156 135.980469 567.972656 C 135.980469 568.039062 136.644531 568.839844 137.445312 569.757812 C 138.246094 570.660156 138.960938 571.527344 139.011719 571.664062 C 139.0625 571.800781 139.351562 572.226562 139.675781 572.617188 C 139.984375 573.007812 140.238281 573.367188 140.238281 573.453125 C 140.238281 573.519531 140.476562 573.859375 140.75 574.21875 C 141.039062 574.574219 141.261719 574.914062 141.261719 574.984375 C 141.261719 575.070312 141.449219 575.359375 141.667969 575.664062 C 142.199219 576.34375 142.964844 577.671875 144.363281 580.34375 C 144.992188 581.550781 147.003906 586.25 147.140625 586.8125 C 147.171875 586.949219 147.394531 587.679688 147.652344 588.429688 C 147.890625 589.175781 148.128906 589.910156 148.164062 590.046875 C 148.195312 590.179688 148.417969 591.066406 148.640625 592.003906 C 148.878906 592.9375 149.117188 593.976562 149.167969 594.300781 C 149.21875 594.625 149.304688 595.082031 149.355469 595.320312 C 149.40625 595.558594 149.492188 596.050781 149.542969 596.425781 C 149.59375 596.800781 149.660156 597.261719 149.695312 597.449219 C 149.730469 597.636719 149.816406 598.367188 149.867188 599.066406 C 149.933594 599.761719 150.003906 600.527344 150.054688 600.765625 C 150.140625 601.3125 150.121094 607.539062 150.019531 608.679688 C 149.882812 610.296875 149.679688 611.863281 149.507812 612.851562 C 149.472656 612.988281 149.421875 613.292969 149.390625 613.53125 C 149.203125 614.621094 148.964844 615.761719 148.84375 616.203125 C 148.808594 616.375 148.65625 616.96875 148.503906 617.53125 C 148.367188 618.09375 148.214844 618.671875 148.179688 618.808594 C 148.128906 618.941406 147.890625 619.707031 147.632812 620.507812 C 147.378906 621.308594 147.140625 622.023438 147.121094 622.125 C 147.039062 622.515625 145.300781 626.566406 145.144531 626.753906 C 145.042969 626.875 145.007812 626.976562 145.078125 626.976562 C 145.128906 626.976562 144.992188 627.28125 144.753906 627.65625 C 144.515625 628.03125 144.378906 628.335938 144.429688 628.335938 C 144.5 628.335938 144.464844 628.441406 144.363281 628.542969 C 144.277344 628.660156 144.003906 629.101562 143.78125 629.527344 C 142.980469 630.992188 142.589844 631.65625 142.316406 631.945312 C 142.179688 632.117188 142.113281 632.25 142.179688 632.25 C 142.25 632.25 141.992188 632.660156 141.601562 633.152344 C 141.226562 633.664062 140.921875 634.125 140.921875 634.210938 C 140.921875 634.277344 140.613281 634.703125 140.222656 635.164062 C 139.847656 635.621094 139.574219 635.996094 139.640625 635.996094 C 139.710938 635.996094 139.335938 636.488281 138.808594 637.085938 C 138.277344 637.679688 137.851562 638.257812 137.851562 638.363281 C 137.851562 638.617188 131.105469 645.355469 130.847656 645.355469 C 130.746094 645.355469 130.21875 645.730469 129.671875 646.207031 C 129.128906 646.667969 128.632812 647.058594 128.566406 647.058594 C 128.5 647.058594 128.125 647.332031 127.730469 647.652344 C 127.324219 647.976562 126.949219 648.25 126.863281 648.25 C 126.792969 648.25 126.351562 648.539062 125.875 648.894531 C 125.378906 649.238281 124.953125 649.527344 124.902344 649.527344 C 124.851562 649.527344 124.578125 649.695312 124.273438 649.917969 C 123.984375 650.121094 123.691406 650.292969 123.640625 650.292969 C 123.574219 650.292969 123.214844 650.496094 122.808594 650.75 C 122.414062 651.007812 122.058594 651.226562 122.003906 651.246094 C 121.683594 651.3125 120.472656 651.925781 120.097656 652.199219 C 119.824219 652.386719 119.621094 652.488281 119.621094 652.417969 C 119.621094 652.367188 119.449219 652.417969 119.246094 652.539062 C 119.023438 652.65625 118.820312 652.757812 118.769531 652.757812 C 118.71875 652.777344 118.308594 652.964844 117.832031 653.167969 C 117.371094 653.390625 116.910156 653.578125 116.808594 653.59375 C 116.722656 653.609375 116.535156 653.679688 116.433594 653.746094 C 116.316406 653.832031 116.074219 653.917969 115.921875 653.949219 C 115.753906 653.984375 114.933594 654.257812 114.082031 654.5625 C 113.246094 654.851562 112.480469 655.109375 112.378906 655.125 C 112.292969 655.160156 111.867188 655.277344 111.441406 655.398438 C 111.015625 655.535156 110.640625 655.636719 110.589844 655.652344 C 110.539062 655.652344 110.195312 655.738281 109.824219 655.824219 C 109.449219 655.890625 109.074219 655.976562 108.96875 656.011719 C 108.886719 656.042969 108.613281 656.09375 108.375 656.144531 C 108.136719 656.199219 107.726562 656.300781 107.4375 656.367188 C 107.164062 656.417969 106.804688 656.488281 106.667969 656.503906 C 106.535156 656.519531 105.546875 656.675781 104.488281 656.828125 C 100.382812 657.421875 94.691406 657.492188 91.164062 657.015625 C 90.839844 656.964844 90.292969 656.894531 89.972656 656.859375 C 87.910156 656.605469 83.582031 655.667969 81.960938 655.125 C 81.535156 654.972656 81.074219 654.835938 80.941406 654.800781 C 80.804688 654.769531 80.222656 654.582031 79.660156 654.375 C 79.097656 654.1875 78.519531 653.984375 78.367188 653.949219 C 78.214844 653.917969 77.941406 653.816406 77.769531 653.730469 C 77.359375 653.507812 76.457031 653.152344 76.339844 653.152344 C 76.289062 653.152344 76 653.015625 75.691406 652.8125 C 75.402344 652.625 75.144531 652.519531 75.144531 652.554688 C 75.144531 652.65625 71.242188 650.699219 70.9375 650.429688 C 70.816406 650.324219 70.714844 650.308594 70.714844 650.359375 C 70.714844 650.429688 70.359375 650.222656 69.914062 649.917969 C 69.453125 649.609375 69.0625 649.355469 69.011719 649.355469 C 68.960938 649.355469 68.6875 649.1875 68.382812 648.964844 C 68.089844 648.761719 67.800781 648.589844 67.734375 648.589844 C 67.683594 648.589844 67.171875 648.25 66.625 647.824219 C 66.082031 647.398438 65.570312 647.058594 65.5 647.058594 C 65.433594 647.058594 64.992188 646.71875 64.511719 646.328125 C 64.035156 645.917969 63.558594 645.542969 63.441406 645.507812 C 63.335938 645.476562 62.671875 644.914062 61.957031 644.285156 C 61.257812 643.65625 60.628906 643.160156 60.578125 643.179688 C 60.476562 643.246094 55.890625 638.683594 55.890625 638.496094 C 55.890625 638.414062 55.328125 637.75 54.664062 637 C 53.984375 636.25 53.386719 635.554688 53.351562 635.433594 C 53.316406 635.316406 52.941406 634.839844 52.535156 634.363281 C 52.140625 633.886719 51.800781 633.425781 51.800781 633.359375 C 51.800781 633.289062 51.410156 632.746094 50.933594 632.148438 C 50.457031 631.554688 50.113281 631.0625 50.183594 631.0625 C 50.234375 631.0625 50.097656 630.804688 49.859375 630.5 C 49.601562 630.175781 49.414062 629.851562 49.414062 629.785156 C 49.414062 629.714844 49.246094 629.410156 49.023438 629.121094 C 48.800781 628.832031 48.496094 628.355469 48.359375 628.082031 C 48.207031 627.792969 47.660156 626.722656 47.117188 625.699219 C 46.195312 623.914062 44.492188 620.050781 44.390625 619.488281 C 44.355469 619.335938 44.203125 618.910156 44.046875 618.535156 C 43.894531 618.175781 43.742188 617.785156 43.722656 617.699219 C 43.691406 617.597656 43.570312 617.191406 43.453125 616.765625 C 43.195312 615.914062 43.164062 615.792969 43.042969 615.316406 C 42.992188 615.132812 42.871094 614.707031 42.789062 614.382812 C 42.480469 613.410156 41.765625 609.785156 41.664062 608.679688 C 41.59375 608.117188 41.527344 607.625 41.492188 607.574219 C 41.183594 607.082031 41.03125 598.027344 41.289062 595.832031 C 41.644531 592.851562 41.96875 590.945312 42.515625 588.683594 C 42.839844 587.320312 43.144531 586.027344 43.195312 585.808594 C 43.246094 585.585938 43.402344 585.144531 43.535156 584.835938 C 43.671875 584.515625 43.742188 584.257812 43.691406 584.257812 C 43.65625 584.257812 43.722656 584.019531 43.878906 583.75 C 44.03125 583.457031 44.097656 583.238281 44.066406 583.238281 C 43.980469 583.238281 45.71875 578.964844 45.957031 578.589844 C 46.023438 578.472656 46.09375 578.351562 46.09375 578.300781 C 46.109375 578.199219 47.386719 575.699219 47.863281 574.847656 C 48.070312 574.507812 48.394531 573.929688 48.582031 573.570312 C 48.785156 573.230469 49.175781 572.652344 49.449219 572.292969 C 49.722656 571.953125 49.910156 571.664062 49.839844 571.664062 C 49.773438 571.664062 49.996094 571.324219 50.335938 570.914062 C 50.675781 570.507812 50.949219 570.097656 50.949219 570.03125 C 50.949219 569.960938 51.527344 569.230469 52.226562 568.414062 C 52.925781 567.582031 53.503906 566.847656 53.503906 566.761719 C 53.503906 566.335938 62.058594 558.476562 62.535156 558.476562 C 62.585938 558.476562 62.945312 558.21875 63.335938 557.914062 C 63.710938 557.625 64.085938 557.367188 64.15625 557.367188 C 64.242188 557.367188 64.53125 557.179688 64.835938 556.960938 C 65.125 556.722656 65.65625 556.382812 65.996094 556.195312 C 66.335938 555.992188 66.914062 555.667969 67.273438 555.460938 C 67.613281 555.257812 68.144531 554.984375 68.414062 554.851562 C 68.703125 554.714844 69.113281 554.457031 69.351562 554.304688 C 69.589844 554.136719 69.863281 553.980469 69.949219 553.964844 C 70.050781 553.949219 70.664062 553.675781 71.3125 553.371094 C 73.253906 552.449219 75.792969 551.429688 76.851562 551.175781 C 76.988281 551.140625 77.480469 550.96875 77.941406 550.816406 C 78.859375 550.492188 80.429688 550.066406 81.109375 549.949219 C 81.347656 549.898438 81.671875 549.828125 81.824219 549.777344 C 81.980469 549.726562 82.269531 549.660156 82.457031 549.625 C 82.660156 549.574219 82.984375 549.507812 83.207031 549.453125 C 83.410156 549.402344 84.039062 549.285156 84.601562 549.183594 C 85.164062 549.097656 85.8125 548.976562 86.050781 548.945312 C 86.289062 548.894531 86.9375 548.808594 87.5 548.757812 C 88.0625 548.6875 89.066406 548.585938 89.714844 548.519531 C 90.960938 548.382812 98.304688 548.433594 98.949219 548.570312 Z M 98.949219 548.570312 "/>
</g>
</svg>
